<?xml version="1.0" encoding="UTF-8" standalone="no"?>
<!DOCTYPE svg PUBLIC "-//W3C//DTD SVG 1.1//EN" "http://www.w3.org/Graphics/SVG/1.1/DTD/svg11.dtd">
<svg width="100%" height="100%" viewBox="0 0 32 32" version="1.1" xmlns="http://www.w3.org/2000/svg" xmlns:xlink="http://www.w3.org/1999/xlink" xml:space="preserve" xmlns:serif="http://www.serif.com/" style="fill-rule:evenodd;clip-rule:evenodd;stroke-linejoin:round;stroke-miterlimit:2;">
    <g transform="matrix(0.0750473,0,0,0.0757643,-113.917,-26.5248)">
        <path d="M1718.78,362.79C1692.19,394.78 1678.88,427.68 1668.46,467.43C1667.04,472.79 1683.38,470.28 1684.72,465.16C1694.89,426.39 1707.87,394 1733.88,362.73C1738.18,357.54 1721.87,359.07 1718.78,362.79Z" style="fill:rgb(98,1,1);fill-rule:nonzero;"/>
        <path d="M1688.29,469.88C1706.39,451.09 1725.29,433.19 1742.52,413.58C1759.29,394.45 1776.48,372.26 1798.99,359.61C1811.79,352.41 1792.36,349.94 1785.63,353.72C1766.09,364.72 1750.65,381.97 1735.66,398.35C1714.43,421.55 1692.79,444.11 1670.97,466.75C1662.24,475.83 1683.59,474.76 1688.29,469.88Z" style="fill:rgb(98,1,1);fill-rule:nonzero;"/>
        <path d="M1718.21,471.3C1715.96,471.3 1713.76,470.23 1712.38,468.23C1710.18,465 1711.03,460.63 1714.24,458.44C1717.65,456.11 1721.58,453.35 1725.93,450.3C1755.48,429.51 1800.15,398.1 1835.41,395.31C1839.29,395.04 1842.69,397.92 1842.98,401.78C1843.29,405.66 1840.39,409.06 1836.52,409.36C1805.11,411.85 1760.61,443.12 1734.04,461.83C1729.63,464.94 1725.63,467.73 1722.18,470.09C1720.95,470.9 1719.56,471.3 1718.21,471.3Z" style="fill:rgb(98,1,1);fill-rule:nonzero;"/>
        <path d="M1774.02,474.83C1790.5,469.27 1802.72,458.51 1817.73,450.22C1832.4,442.12 1858.86,437.26 1875.59,436.77C1888.03,436.4 1892.31,420.27 1877.5,420.71C1860.41,421.2 1845.22,426.64 1828.82,430.83C1819.4,433.25 1811.52,435.34 1802.95,440.08C1791.64,446.31 1782.43,455.59 1769.98,459.8C1756.94,464.18 1760.72,479.32 1774.02,474.83Z" style="fill:rgb(98,1,1);fill-rule:nonzero;"/>
        <path d="M1798.09,487.09C1826.79,482.94 1855.32,484.99 1883.52,491.41C1889.32,492.73 1911.13,483.36 1904.1,481.79C1870.49,474.14 1836.85,473.04 1802.77,477.98C1792.73,479.43 1780.44,489.65 1798.09,487.09Z" style="fill:rgb(98,1,1);fill-rule:nonzero;"/>
        <path d="M1593.84,463.44C1601.31,455.09 1610.77,464.25 1615.38,470.74C1619.5,476.5 1618.72,484.13 1619.69,490.8C1620.51,496.38 1636.92,492.56 1636.01,486.43C1635.14,480.54 1635.5,474.4 1633.15,468.84C1630.17,461.85 1624.4,456.04 1617.51,452.99C1604.22,447.12 1587.84,452.75 1578.62,463.06C1575.9,466.08 1580.91,467.85 1583.06,467.9C1587.15,468.02 1591.15,466.46 1593.84,463.44Z" style="fill:rgb(98,1,1);fill-rule:nonzero;"/>
        <path d="M1578.61,494.85C1580.17,493.15 1584.83,487.48 1587.66,487.35C1590.66,487.22 1593.71,489.99 1595.77,491.8C1600.49,495.97 1603.89,501.69 1607.09,507.02C1609.8,511.55 1625.7,506.43 1622.25,500.66C1616.4,490.9 1609.48,480.8 1597.58,478.52C1583.99,475.91 1571.94,485.26 1563.44,494.56C1560.69,497.56 1565.74,499.24 1567.84,499.27C1571.88,499.35 1575.88,497.83 1578.61,494.85Z" style="fill:rgb(98,1,1);fill-rule:nonzero;"/>
        <path d="M1574.29,524.43C1589.24,529.99 1602.83,523.78 1615.93,516.65C1617.72,515.69 1623.45,511.94 1618.5,510.69C1613.84,509.48 1607.38,511.14 1603.27,513.39C1600.3,514.99 1597.41,516.69 1594.4,518.23C1595.9,517.48 1600.76,517.97 1597.44,517.42C1595.61,517.13 1593.84,516.42 1592.12,515.77C1587.7,514.13 1580.81,516.56 1576.87,518.47C1574.57,519.6 1569.8,522.75 1574.29,524.43Z" style="fill:rgb(98,1,1);fill-rule:nonzero;"/>
        <path d="M1701.88,576.88C1701.88,581.92 1697.8,585.98 1692.78,585.98C1687.74,585.98 1683.69,581.92 1683.69,576.88C1683.69,571.87 1687.75,567.79 1692.78,567.79C1697.8,567.78 1701.88,571.87 1701.88,576.88Z" style="fill:rgb(98,1,1);fill-rule:nonzero;"/>
        <path d="M1766.08,575.27C1766.08,580.28 1762.36,584.36 1757.78,584.36C1753.21,584.36 1749.51,580.28 1749.51,575.27C1749.51,570.25 1753.21,566.18 1757.78,566.18C1762.36,566.18 1766.08,570.25 1766.08,575.27Z" style="fill:rgb(98,1,1);fill-rule:nonzero;"/>
        <path d="M1718.61,654.63C1690.44,654.63 1660.37,648.06 1635.38,613.6C1633.1,610.46 1633.76,606.05 1636.84,603.75C1639.95,601.41 1644.28,602.11 1646.53,605.24C1672.4,640.9 1704.1,641.94 1734.43,639.94C1764.49,638.14 1787.61,630.05 1810.02,595.39C1812.1,592.16 1816.42,591.23 1819.62,593.38C1822.83,595.51 1823.71,599.88 1821.62,603.14C1796.09,642.6 1768.63,652.01 1735.28,654.01C1729.84,654.36 1724.27,654.63 1718.61,654.63Z" style="fill:rgb(98,1,1);fill-rule:nonzero;"/>
        <path d="M1724.76,761.34C1671.23,752.18 1645.83,719.74 1631.36,696.14C1610.01,661.33 1603.44,622.65 1600.63,606.13C1600.25,603.87 1599.93,602.01 1599.64,600.64C1598.84,599.64 1593.86,598.27 1590.89,597.46C1582.57,595.16 1569.96,591.69 1569.07,578.42C1568.03,560.59 1585.36,558.35 1594.68,557.14C1598.19,556.7 1602.99,556.07 1604.35,555.05L1605.5,554.23C1606.02,553.86 1606.46,553.56 1606.84,553.29C1606.83,553.09 1606.81,552.88 1606.8,552.64C1606.71,551.14 1606.61,549.16 1606.61,546.48C1606.61,541.19 1607.55,536.54 1608.46,532.03C1608.93,529.83 1609.38,527.57 1609.72,525.2C1610.29,521.34 1613.92,518.64 1617.69,519.21C1621.54,519.75 1624.21,523.31 1623.68,527.17C1623.28,529.83 1622.77,532.35 1622.27,534.84C1621.45,538.83 1620.69,542.59 1620.69,546.48C1620.69,548.82 1620.79,550.54 1620.87,551.86C1621.27,559.23 1619.71,561.44 1613.65,565.72L1612.67,566.42C1608.47,569.57 1602.65,570.32 1596.48,571.12C1583.96,572.74 1582.9,574.08 1583.13,577.54C1583.3,580.32 1586.66,581.71 1594.61,583.89C1602.18,585.96 1611.58,588.56 1613.46,597.88C1613.75,599.37 1614.09,601.36 1614.5,603.79C1617.18,619.48 1623.43,656.29 1643.37,688.78C1657.49,711.83 1679.31,742.92 1727.14,747.46C1763.27,750.88 1798.16,713.86 1814.56,684.17C1824.67,665.15 1830.59,628.16 1833.41,610.37C1833.83,607.81 1834.2,605.19 1834.56,602.63C1836.7,587.54 1838.01,578.42 1845.95,577.1C1857.82,575.13 1863.03,569.55 1862.79,566.4C1862.58,563.22 1856.14,558.01 1839.82,557.59C1834.61,557.46 1831.58,555.17 1829.95,553.29C1825.5,548.15 1826.35,540.94 1827.34,532.6C1827.98,527.32 1828.66,521.35 1827.95,515.97C1827.42,512.11 1830.13,508.58 1833.98,508.04C1837.76,507.53 1841.37,510.23 1841.9,514.07C1842.88,521.22 1842.03,528.44 1841.34,534.24C1840.99,537.19 1840.48,541.38 1840.68,543.49C1866.39,544.42 1876.16,555.38 1876.86,565.41C1877.66,576.89 1867.14,586.93 1850.99,590.47C1850.07,593.58 1849.15,600.07 1848.51,604.62C1848.13,607.26 1847.74,609.96 1847.33,612.61C1842.59,642.25 1836.84,672.26 1826.95,690.89C1810.39,720.92 1780.17,758.63 1737.91,761.45C1735.61,761.6 1727.83,761.87 1724.76,761.34Z" style="fill:rgb(98,1,1);fill-rule:nonzero;"/>
    </g>
</svg>
