<?xml version="1.0" encoding="utf-8"?>
<!-- Generator: Adobe Illustrator 27.8.1, SVG Export Plug-In . SVG Version: 6.00 Build 0)  -->
<svg version="1.1" id="Layer_1" xmlns="http://www.w3.org/2000/svg" xmlns:xlink="http://www.w3.org/1999/xlink" x="0px" y="0px"
	 viewBox="0 0 1920 1080" style="enable-background:new 0 0 1920 1080;" xml:space="preserve">
<style type="text/css">
	.st0{fill:#620101;}
</style>
<g>
	<g>
		<path class="st0" d="M82.81,575.95c0-34.53,0-40.72-0.47-47.81c-0.47-7.53-2.35-11.07-10.12-12.62c-1.88-0.44-5.88-0.66-8-0.66
			c-0.94,0-1.88-0.45-1.88-1.33c0-1.33,1.18-1.77,3.76-1.77c10.59,0,25.4,0.66,26.58,0.66c5.64,0,14.82-0.66,25.64-0.66
			c38.58,0,47.05,22.13,47.05,33.2c0,18.15-11.06,29-22.11,39.84c17.41,5.09,40.7,20.81,40.7,46.7c0,23.69-19.76,48.26-59.98,48.26
			c-2.59,0-10.12-0.44-16.94-0.66c-6.82-0.44-13.41-0.66-14.35-0.66c-0.47,0-4.47,0-9.41,0.22c-4.7,0-10.11,0.44-13.64,0.44
			c-2.59,0-3.76-0.44-3.76-1.77c0-0.66,0.47-1.33,1.88-1.33c2.12,0,4.94-0.44,7.06-0.89c4.7-0.88,5.88-5.75,6.82-12.17
			c1.18-9.3,1.18-26.78,1.18-48.03V575.95z M101.62,580.82c0,1.55,0.47,1.99,1.65,2.44c1.41,0.22,5.65,0.88,14.35,0.88
			c13.17,0,16.47-0.44,21.41-5.76c4.94-5.31,8.47-13.28,8.47-22.35c0-18.37-8.7-38.07-31.75-38.07c-2.59,0-7.53,0.22-11.29,1.11
			c-2.12,0.44-2.82,1.11-2.82,2.43V580.82z M101.62,604.28c0,17.05,0,44.49,0.24,47.82c0.71,10.84,0.71,13.94,8,17.27
			c6.35,2.88,16.47,3.32,20.7,3.32c12.7,0,33.17-6.42,33.17-31.43c0-13.28-4.7-32.54-22.82-44.27c-8-5.09-13.88-5.75-19.52-6.42
			c-3.06-0.45-14.82-0.45-18.35-0.45c-0.94,0-1.41,0.45-1.41,1.55V604.28z"/>
		<path class="st0" d="M123.97,681.4c-1.41,0-4.27-0.13-7.69-0.28c-2.88-0.13-6.16-0.28-9.3-0.38c-6.99-0.45-13.5-0.66-14.29-0.66
			c-0.47,0-4.43,0-9.34,0.22c-2.57,0-5.27,0.13-7.77,0.24c-2.22,0.1-4.29,0.2-5.95,0.2c-1.48,0-5.4,0-5.4-3.41
			c0-1.48,1.09-2.96,3.52-2.96c1.68,0,4.19-0.32,6.72-0.85c3.45-0.65,4.57-4.15,5.54-10.81c1.16-9.16,1.16-27.07,1.16-47.8v-38.96
			c0-34.46,0-40.67-0.47-47.7c-0.42-6.69-1.73-9.71-8.8-11.13c-1.74-0.41-5.64-0.63-7.68-0.63c-2.04,0-3.52-1.25-3.52-2.96
			c0-3.41,3.92-3.41,5.4-3.41c7.97,0,18.44,0.38,23.47,0.56c1.69,0.06,2.82,0.1,3.11,0.1c2.35,0,5.31-0.12,8.76-0.25
			c4.71-0.19,10.57-0.41,16.88-0.41c38.43,0,48.68,21.9,48.68,34.84c0,17.74-10.2,28.77-20.67,39.11
			c15.71,5.41,39.25,20.54,39.25,47.44C185.59,656.3,164.42,681.4,123.97,681.4z M92.69,676.8L92.69,676.8
			c1.06,0,7.67,0.23,14.45,0.67c3.1,0.1,6.39,0.25,9.29,0.38c3.35,0.15,6.16,0.28,7.54,0.28c40.09,0,58.35-24.17,58.35-46.62
			c0-26.5-24.84-40.84-39.52-45.13l-2.68-0.79l1.99-1.96c11.12-10.91,21.62-21.21,21.62-38.67c0-11.73-9.56-31.57-45.41-31.57
			c-6.25,0-12.07,0.23-16.75,0.41c-3.49,0.14-6.5,0.26-8.89,0.26c-0.3,0-1.47-0.04-3.23-0.1c-4.5-0.17-13.35-0.49-20.83-0.55
			c1.51,0.12,2.98,0.29,3.97,0.52c8.92,1.78,10.89,6.33,11.37,14.11c0.47,7.14,0.47,13.36,0.47,47.91v38.96
			c0,21.7,0,38.84-1.19,48.24c-0.77,5.25-1.81,12.39-8.14,13.58c-0.84,0.18-2.59,0.52-4.47,0.73c1.42-0.03,3.06-0.1,4.79-0.19
			c2.55-0.12,5.3-0.24,7.85-0.24C88.18,676.8,92.2,676.8,92.69,676.8z M130.56,674.32c-3.22,0-14.28-0.25-21.37-3.46
			c-7.98-3.64-8.23-7.49-8.9-17.77l-0.06-0.88c-0.24-3.37-0.24-30.19-0.24-47.92v-12.61c0-1.97,1.17-3.19,3.05-3.19
			c10.37,0,16.45,0.15,18.59,0.47c5.89,0.69,11.9,1.4,20.17,6.65c21.28,13.78,23.57,36.51,23.57,45.65
			C165.36,665.66,146.61,674.32,130.56,674.32z M103.28,591.75l-0.02,12.53c0,16.62,0,44.44,0.23,47.7l0.06,0.89
			c0.65,10.08,0.79,12.18,6.98,15c6.66,3.02,17.85,3.17,20.02,3.17c3.23,0,31.53-0.84,31.53-29.8c0-8.6-2.15-29.99-22.07-42.9
			c-7.62-4.84-13.26-5.51-18.72-6.15C119.22,591.9,113.2,591.75,103.28,591.75z M117.62,585.78c-8.76,0-13.13-0.67-14.56-0.89
			c-1.99-0.71-3.07-1.62-3.07-4.06V521.5c0-3.18,2.89-3.78,4.13-4.04c4.59-1.08,10.49-1.14,11.62-1.14
			c24.65,0,33.39,21.39,33.39,39.71c0,8.83-3.25,17.38-8.9,23.46C134.66,585.49,130.36,585.78,117.62,585.78z M103.33,581.5
			c0.01,0,0.12,0.08,0.52,0.24c1.08,0.13,5.26,0.77,13.77,0.77c13.03,0,15.7-0.39,20.21-5.23c5.1-5.49,8.03-13.23,8.03-21.24
			c0-17.62-7.91-36.44-30.12-36.44c-2.96,0-7.59,0.28-10.91,1.06c-1.57,0.33-1.57,0.57-1.57,0.84v59.32
			C103.26,581.35,103.33,581.49,103.33,581.5L103.33,581.5z"/>
	</g>
	<g>
		<path class="st0" d="M223.06,606.29c0-24.17,0-28.56-0.39-33.51c-0.39-5.31-1.36-7.87-7.01-8.61c-1.36-0.18-4.28-0.36-5.84-0.36
			c-0.58,0-1.36-0.73-1.36-1.28c0-0.92,0.78-1.28,2.73-1.28c7.78,0,19.27,0.36,20.24,0.36c1.75,0,16.15-0.36,21.41-0.36
			c10.9,0,22.96,0.91,31.92,6.77c4.28,2.93,11.87,10.44,11.87,21.24c0,11.54-5.06,22.71-21.02,35.53
			c14.01,16.48,25.88,30.58,35.81,40.28c9.14,8.79,14.79,10.26,19.07,10.81c3.31,0.55,5.06,0.55,6.03,0.55
			c0.97,0,1.56,0.73,1.56,1.28c0,0.92-0.97,1.28-4.09,1.28h-10.7c-9.73,0-14.01-0.91-18.29-3.11c-7.39-3.66-13.62-11.17-23.35-22.89
			c-7.2-8.42-14.79-18.5-18.49-22.71c-0.78-0.73-1.17-0.91-2.34-0.91L239.02,629c-0.78,0-1.17,0.36-1.17,1.28v3.67
			c0,15.01,0,27.1,0.78,33.51c0.58,4.58,1.56,7.51,6.81,8.24c2.34,0.36,6.03,0.73,7.59,0.73c1.17,0,1.36,0.73,1.36,1.28
			c0,0.73-0.78,1.28-2.72,1.28c-9.34,0-20.24-0.55-21.02-0.55c-0.19,0-11.68,0.55-16.93,0.55c-1.75,0-2.73-0.36-2.73-1.28
			c0-0.55,0.39-1.28,1.36-1.28c1.56,0,3.7-0.37,5.25-0.73c3.31-0.73,3.7-3.66,4.48-8.24c0.97-6.41,0.97-18.68,0.97-33.69V606.29z
			 M237.85,619.48c0,0.91,0.39,1.46,1.17,2.01c2.53,1.28,11.28,2.38,18.88,2.38c4.09,0,8.75-0.18,12.84-2.74
			c5.84-3.67,10.32-11.9,10.32-23.81c0-19.41-11.29-30.58-29.58-30.58c-5.06,0-10.51,0.55-12.26,0.91
			c-0.78,0.36-1.36,0.91-1.36,1.83V619.48z"/>
		<path class="st0" d="M333.98,680.62h-10.7c-9.44,0-14.24-0.83-19.04-3.29c-7.67-3.8-14.09-11.53-23.81-23.23
			c-3.98-4.66-7.98-9.7-11.51-14.14c-2.86-3.6-5.33-6.71-7-8.61c-0.39-0.36-0.39-0.36-1.11-0.36l-21.32-0.36l-0.01,3.3
			c0,15.09,0,27,0.77,33.31c0.59,4.63,1.46,6.27,5.41,6.81c2.39,0.38,5.95,0.72,7.36,0.72c1.79,0,3,1.17,3,2.91
			c0,0.68-0.31,2.92-4.36,2.92c-7.28,0-15.61-0.34-19.17-0.48c-1.02-0.05-1.67-0.07-1.84-0.07l-0.83,0.04
			c-2.88,0.13-11.66,0.51-16.1,0.51c-3.8,0-4.36-1.83-4.36-2.92c0-1.43,1.12-2.91,3-2.91c1.42,0,3.45-0.36,4.88-0.69
			c2.04-0.45,2.41-2.02,3.16-6.47l0.07-0.45c0.95-6.26,0.95-18.84,0.95-33.42v-27.47c0-24.15,0-28.5-0.38-33.38
			c-0.37-5.07-1.11-6.53-5.59-7.11c-1.32-0.17-4.16-0.35-5.63-0.35c-1.49,0-3-1.47-3-2.91c0-1.94,1.47-2.92,4.36-2.92
			c5.76,0,13.56,0.2,17.62,0.3c1.41,0.04,2.36,0.06,2.61,0.06c0.64,0,2.97-0.05,5.91-0.11c5.14-0.11,12.16-0.26,15.5-0.26
			c10.9,0,23.33,0.84,32.81,7.04c2.13,1.46,12.61,9.31,12.61,22.61c0,13.04-6.28,24.12-20.32,35.74l1.39,1.64
			c12.85,15.13,23.95,28.19,33.23,37.27c8.46,8.14,13.72,9.78,18.13,10.35c3.23,0.54,4.86,0.54,5.82,0.54
			c1.91,0,3.19,1.51,3.19,2.91C339.71,680.62,336.12,680.62,333.98,680.62z M239.02,627.36l21.82,0.36c1.51,0,2.32,0.32,3.42,1.36
			c1.82,2.06,4.32,5.2,7.21,8.84c3.51,4.42,7.49,9.43,11.4,14c9.52,11.46,15.77,18.98,22.83,22.49c3.81,1.96,7.56,2.94,17.57,2.94
			h5.97c-4.72-0.75-10.41-2.86-18.98-11.1c-9.4-9.2-20.54-22.31-33.45-37.5l-3.56-4.19l1.31-1.05
			c14.11-11.34,20.41-21.9,20.41-34.25c0-11.65-9.29-18.61-11.16-19.89c-8.73-5.71-20.57-6.49-30.99-6.49
			c-3.32,0-10.31,0.15-15.43,0.26c-2.98,0.06-5.33,0.11-5.98,0.11c-0.26,0-1.24-0.03-2.7-0.06c-2.59-0.06-6.69-0.17-10.81-0.24
			c5.31,1.42,6.05,5.25,6.38,9.71c0.39,5,0.39,9.37,0.39,33.63v27.47c0,15.31,0,27.41-0.99,33.94l-0.08,0.47
			c-0.74,4.38-1.38,8.16-5.63,9.11c4.36-0.12,9.59-0.35,11.68-0.44c0.59-0.03,0.94-0.04,0.97-0.04c0.18,0,0.89,0.03,1.98,0.07
			c2.46,0.1,7.23,0.29,12.34,0.4c-6.33-0.97-7.38-5.1-7.96-9.62c-0.79-6.51-0.79-18.52-0.79-33.71v-3.67
			C236.22,628.51,237.32,627.36,239.02,627.36z M257.9,625.5c-7,0-16.49-0.98-19.61-2.55c-1-0.69-2.07-1.65-2.07-3.48v-49.99
			c0-0.84,0.3-2.38,2.31-3.32c2.22-0.51,7.78-1.07,12.95-1.07c19.55,0,31.22,12.04,31.22,32.21c0,11.42-4.14,20.84-11.08,25.2
			C267.2,625.27,262.22,625.5,257.9,625.5z M251.48,568.38c-5.12,0-10.41,0.56-11.93,0.88c-0.06,0.08-0.06,0.18-0.06,0.23v49.99
			c0,0.24,0,0.34,0.48,0.68c1.85,0.91,10.05,2.08,17.93,2.08c4.05,0,8.3-0.19,11.97-2.49c5.98-3.76,9.55-12.13,9.55-22.42
			C279.42,579.2,268.97,568.38,251.48,568.38z"/>
	</g>
	<g>
		<path class="st0" d="M372.9,564.36c2.14-5.13,2.92-6.04,4.09-6.04c1.75,0,2.34,2.19,4.09,5.67c3.11,6.59,30.55,70.87,41.06,94.48
			c6.23,13.92,10.9,15.94,14.59,17.04c2.53,0.73,5.06,0.91,6.81,0.91c0.97,0,2.14,0.36,2.14,1.28c0,0.92-1.95,1.28-3.89,1.28
			c-2.53,0-15.18,0-27.05-0.36c-3.31-0.19-6.03-0.19-6.03-1.1c0-0.73,0.39-0.73,1.17-1.1c0.97-0.37,2.73-1.65,1.56-4.21
			l-15.37-35.71c-0.39-0.73-0.58-0.92-1.56-0.92H355c-0.78,0-1.36,0.37-1.75,1.28l-9.73,24.9c-1.56,3.85-2.53,7.69-2.53,10.44
			c0,3.11,2.92,4.21,5.84,4.21h1.56c1.36,0,1.75,0.55,1.75,1.28c0,0.92-0.97,1.28-2.53,1.28c-4.09,0-13.43-0.55-15.37-0.55
			c-1.75,0-10.32,0.55-17.32,0.55c-2.14,0-3.31-0.36-3.31-1.28c0-0.73,0.78-1.28,1.56-1.28c1.17,0,3.7-0.19,5.06-0.37
			c7.78-0.91,11.09-6.41,14.4-14.28L372.9,564.36z M391.98,629.18c0.78,0,0.78-0.36,0.58-1.09l-16.93-42.67
			c-0.97-2.38-1.95-2.38-2.92,0l-15.96,42.67c-0.19,0.73,0,1.09,0.58,1.09H391.98z"/>
		<path class="st0" d="M441.79,680.62c-9.81,0-19.43-0.13-27.1-0.36l-1.28-0.06c-3.68-0.19-6.34-0.32-6.34-2.67
			c0-1.69,1.2-2.19,1.78-2.44l0.44-0.19c0.23-0.09,0.67-0.34,0.82-0.72c0.13-0.31,0.07-0.75-0.18-1.28l-15.35-35.66L355,637.22
			l-9.96,25.14c-1.54,3.81-2.42,7.39-2.42,9.85c0,2.24,2.63,2.58,4.2,2.58h1.56c2.5,0,3.39,1.51,3.39,2.91
			c0,0.88-0.41,2.92-4.17,2.92c-2.43,0-6.72-0.19-10.22-0.35c-2.36-0.11-4.36-0.2-5.15-0.2c-0.57,0-1.89,0.06-3.64,0.14
			c-3.57,0.17-8.97,0.41-13.68,0.41c-3.28,0-4.95-0.98-4.95-2.92c0-1.6,1.43-2.91,3.2-2.91c1.1,0,3.54-0.18,4.84-0.36
			c6.7-0.79,9.67-5.09,13.11-13.29l40.28-97.41c2.09-5.01,3.19-7.05,5.6-7.05c2.43,0,3.4,2.06,4.63,4.66
			c0.27,0.58,0.57,1.23,0.92,1.92c1.52,3.22,8.57,19.55,16.73,38.46c8.86,20.53,18.89,43.8,24.36,56.09
			c6.24,13.96,10.65,15.27,13.57,16.13c2.56,0.73,5.07,0.84,6.35,0.84c2.22,0,3.78,1.2,3.78,2.91
			C447.32,679.03,446.36,680.62,441.79,680.62z M412.17,676.85c0.48,0.03,0.97,0.06,1.4,0.08l1.26,0.06
			c6.42,0.2,14.26,0.32,22.43,0.36c-0.33-0.08-0.65-0.17-0.98-0.26c-4.25-1.27-9.3-3.8-15.63-17.94
			c-5.48-12.32-15.52-35.59-24.38-56.13c-8.15-18.88-15.18-35.2-16.66-38.33c-0.34-0.68-0.66-1.35-0.94-1.96
			c-0.58-1.24-1.31-2.78-1.66-2.78c-0.27,0.16-0.97,1.18-2.58,5.04l-40.28,97.41c-2.85,6.77-6.04,12.98-13.39,14.86
			c2.85-0.09,5.59-0.21,7.7-0.31c1.83-0.08,3.2-0.15,3.79-0.15c0.81,0,2.86,0.09,5.29,0.2c1.62,0.07,3.4,0.15,5.09,0.22
			c-2.06-0.97-3.27-2.74-3.27-5.01c0-2.86,0.97-6.89,2.65-11.05l9.72-24.88c0.65-1.51,1.8-2.33,3.28-2.33h39.5
			c1.72,0,2.4,0.66,3,1.79l15.43,35.83c0.78,1.7,0.55,3.04,0.21,3.85C412.9,676.01,412.55,676.48,412.17,676.85z M391.98,630.81
			h-34.64c-1.03,0-1.59-0.53-1.84-0.85c-0.46-0.6-0.57-1.37-0.33-2.3l16-42.82c0.33-0.81,1.17-2.85,2.99-2.85
			c1.83,0,2.66,2.04,2.97,2.81l16.93,42.68c0.19,0.66,0.45,1.65-0.2,2.5C393.46,630.53,392.82,630.81,391.98,630.81z M358.7,627.54
			h31.85l-16.38-41.36L358.7,627.54z"/>
	</g>
	<g>
		<path class="st0" d="M467.48,657.75c0.39,12.82,1.95,16.67,6.62,17.76c3.11,0.73,7,0.91,8.56,0.91c0.78,0,1.36,0.55,1.36,1.28
			c0,0.92-1.17,1.28-3.11,1.28c-9.73,0-16.54-0.55-18.1-0.55c-1.56,0-8.76,0.55-16.54,0.55c-1.75,0-2.72-0.19-2.72-1.28
			c0-0.73,0.58-1.28,1.36-1.28c1.36,0,4.48-0.19,7-0.91c4.28-1.1,4.87-5.32,4.87-19.41v-89.18c0-6.22,0.97-7.87,2.34-7.87
			c1.95,0,4.87,3.11,6.62,4.76c2.73,2.56,27.63,27.47,54.1,53.11c16.93,16.48,35.22,34.97,40.48,40.1l-1.75-78
			c-0.2-10.07-1.17-13.55-6.42-14.47c-3.12-0.55-7.01-0.73-8.37-0.73c-1.17,0-1.36-0.91-1.36-1.46c0-0.91,1.36-1.1,3.31-1.1
			c7.79,0,15.96,0.36,17.9,0.36c1.95,0,7.59-0.36,14.59-0.36c1.75,0,3.12,0.19,3.12,1.1c0,0.55-0.78,1.46-1.95,1.46
			c-0.78,0-2.14,0-4.08,0.36c-5.65,1.1-6.04,4.22-6.04,13.55l-0.38,91.19c0,10.26-0.2,11.17-1.37,11.17c-1.75,0-3.5-1.28-13.04-9.52
			c-1.75-1.46-26.46-24.36-44.56-42.12c-19.85-19.59-39.12-38.64-44.37-44.13L467.48,657.75z"/>
		<path class="st0" d="M567.5,681.72c-2.43,0-4.36-1.5-14.1-9.92c-1.65-1.38-26.27-24.16-44.64-42.19
			c-16.16-15.95-33.59-33.18-41.48-41.16l1.84,69.25c0.39,12.89,1.97,15.42,5.35,16.22c2.73,0.64,6.39,0.87,8.19,0.87
			c1.68,0,3,1.28,3,2.91c0,1.33-0.82,2.92-4.75,2.92c-6.99,0-12.39-0.27-15.62-0.44c-1.21-0.06-2.05-0.11-2.48-0.11
			c-0.47,0-1.46,0.05-2.82,0.12c-3.1,0.16-8.3,0.43-13.72,0.43c-1.19,0-4.36,0-4.36-2.92c0-1.64,1.32-2.91,3-2.91
			c1.25,0,4.22-0.18,6.55-0.85c3.04-0.78,3.68-3.95,3.68-17.84v-89.18c0-4.94,0.48-9.51,3.97-9.51c2.17,0,4.45,2.04,7,4.5l0.74,0.71
			c0.91,0.85,4.26,4.17,9.31,9.17c10.14,10.03,27.12,26.83,44.8,43.95c10.97,10.68,22.37,22.06,30.7,30.38
			c2.72,2.72,5.07,5.07,6.91,6.89l-1.66-73.96c-0.2-10.47-1.32-12.24-5.07-12.9c-3.02-0.53-6.82-0.71-8.09-0.71
			c-1.76,0-3-1.27-3-3.1c0-2.73,3.46-2.73,4.94-2.73c5.21,0,10.59,0.16,14.18,0.27c1.76,0.06,3.08,0.1,3.72,0.1
			c0.66,0,1.75-0.04,3.18-0.1c2.78-0.1,6.8-0.26,11.41-0.26c1.3,0,4.75,0,4.75,2.73c0,1.46-1.53,3.1-3.58,3.1
			c-0.74,0-1.99,0-3.78,0.34c-4.13,0.8-4.7,2.26-4.7,11.94l-0.38,91.2C570.5,679.52,570.5,681.72,567.5,681.72z M463.78,580.13
			l2.93,3.06c5.37,5.61,25.7,25.71,44.34,44.1c18.32,17.98,42.8,40.64,44.46,42.03c7.19,6.2,10.04,8.55,11.46,9.04
			c0.26-1.67,0.26-6.26,0.26-9.43l0.38-91.2c0-8.56,0.27-13.07,5.87-14.79c-2.58,0.06-4.83,0.14-6.57,0.21
			c-1.49,0.06-2.63,0.1-3.31,0.1c-0.66,0-2.01-0.04-3.82-0.1c-1.97-0.06-4.49-0.13-7.22-0.19c6.84,1.27,7.44,6.91,7.62,16.02
			l1.84,82l-2.87-2.8c-1.85-1.81-5.34-5.28-9.81-9.75c-8.32-8.31-19.72-19.68-30.67-30.35c-17.69-17.13-34.67-33.93-44.82-43.97
			c-5.02-4.97-8.36-8.27-9.26-9.11l-0.77-0.74c-1.11-1.07-3.7-3.58-4.72-3.58c0.06,0.02-0.7,0.87-0.7,6.24v89.18
			c0,13.12-0.26,19.5-6.1,21c-0.21,0.06-0.44,0.12-0.66,0.18c3.26-0.1,6.15-0.24,8.16-0.34c1.45-0.08,2.5-0.13,2.99-0.13
			c0.46,0,1.36,0.05,2.65,0.11c2.12,0.11,5.19,0.27,9.05,0.36c-0.27-0.06-0.53-0.11-0.78-0.17c-6.25-1.47-7.52-7.39-7.88-19.3
			L463.78,580.13z"/>
	</g>
	<g>
		<path class="st0" d="M610.51,606.29c0-24.17,0-28.56-0.39-33.51c-0.39-5.31-1.36-7.87-7-8.61c-1.36-0.18-4.28-0.36-5.84-0.36
			c-0.58,0-1.36-0.73-1.36-1.28c0-0.92,0.78-1.28,2.73-1.28c7.78,0,18.88,0.36,19.85,0.36c1.94,0,12.84-0.36,22.96-0.36
			c17.13,0,48.45-1.46,68.69,17.76c8.56,8.06,16.74,21.06,16.74,39.55c0,19.6-8.95,34.61-18.49,43.76
			c-7.39,7.14-22.77,17.95-51.96,17.95c-7.39,0-16.54-0.55-23.94-0.92c-7.39-0.55-13.23-0.91-14.01-0.91c-0.39,0-3.5,0.19-7,0.19
			c-3.51,0.18-7.59,0.36-10.32,0.36c-1.75,0-2.72-0.36-2.72-1.28c0-0.55,0.39-1.28,1.36-1.28c1.56,0,3.7-0.37,5.26-0.73
			c3.3-0.73,3.69-3.66,4.47-8.24c0.97-6.41,0.97-18.68,0.97-33.69V606.29z M626.07,623.14c0,16.48,0,30.95,0.2,33.87
			c0.19,3.85,0.58,9.52,1.94,11.17c2.14,2.93,8.18,6.23,28.42,6.23c15.76,0,29.77-4.95,40.08-14.1c8.95-7.87,13.42-22.7,13.42-36.99
			c0-19.77-9.14-32.41-16.15-39c-16.15-15.38-35.03-17.4-55.46-17.4c-3.3,0-8.75,0.55-10.31,1.1c-1.55,0.55-2.14,1.28-2.14,3.11
			V623.14z"/>
		<path class="st0" d="M656.43,681.91c-6.24,0-13.72-0.39-20.32-0.73l-3.7-0.19c-7.62-0.57-13.23-0.91-13.92-0.91l-0.7,0.03
			c-1.22,0.06-3.65,0.16-6.31,0.16c-3.45,0.18-7.57,0.36-10.32,0.36c-3.79,0-4.36-1.83-4.36-2.92c0-1.43,1.12-2.91,3-2.91
			c1.42,0,3.46-0.36,4.89-0.69c2.03-0.45,2.4-2.01,3.16-6.47l0.08-0.45c0.95-6.26,0.95-18.84,0.95-33.42v-27.47
			c0-24.15,0-28.5-0.38-33.38c-0.38-5.07-1.11-6.53-5.59-7.11c-1.32-0.17-4.16-0.35-5.63-0.35c-1.48,0-3-1.47-3-2.91
			c0-1.94,1.47-2.92,4.36-2.92c5.76,0,13.34,0.2,17.3,0.3c1.37,0.04,2.3,0.06,2.55,0.06c0.59,0,1.99-0.03,3.96-0.08
			c4.53-0.1,11.96-0.28,19-0.28l7.47-0.03c21.34,0,45.43,2.17,62.35,18.24c7.87,7.4,17.25,20.48,17.25,40.74
			c0,16.97-6.92,33.36-18.99,44.95C697.06,675.54,678.7,681.91,656.43,681.91z M618.49,676.8c0.86,0,6.74,0.37,14.13,0.92l3.67,0.19
			c6.56,0.34,13.99,0.73,20.15,0.73c21.41,0,38.98-6.04,50.82-17.49c5.41-5.19,17.99-19.74,17.99-42.59
			c0-19.09-8.82-31.39-16.22-38.36c-16.09-15.28-39.41-17.34-60.1-17.34l-7.47,0.03c-7.02,0-14.42,0.18-18.93,0.28
			c-2,0.05-3.43,0.08-4.03,0.08c-0.26,0-1.21-0.03-2.63-0.06c-2.5-0.06-6.46-0.17-10.48-0.24c5.3,1.43,6.04,5.25,6.37,9.71
			c0.4,5,0.4,9.37,0.4,33.63v27.47c0,15.31,0,27.41-0.99,33.94l-0.08,0.47c-0.73,4.34-1.37,8.09-5.51,9.09
			c1.91-0.07,3.96-0.17,5.83-0.27c2.68,0,5.06-0.1,6.25-0.15L618.49,676.8z M656.63,676.05c-22.14,0-27.57-3.94-29.74-6.9
			c-1.23-1.49-1.9-5-2.26-12.05c-0.2-2.95-0.2-17.32-0.2-33.96v-52.01c0-2.46,0.96-3.85,3.23-4.65c1.82-0.65,7.49-1.19,10.86-1.19
			c19.15,0,39.29,1.38,56.6,17.85c6.21,5.85,16.65,18.85,16.65,40.18c0,15.99-5.35,30.63-13.98,38.22
			C687.1,671.03,672.87,676.05,656.63,676.05z M638.53,568.56c-3.43,0-8.58,0.59-9.77,1c-0.88,0.31-1.05,0.41-1.05,1.57v52.01
			c0,15.89,0,30.89,0.19,33.77c0.37,7.34,1.06,9.61,1.57,10.24c2.75,3.76,11.87,5.64,27.16,5.64c15.43,0,28.91-4.73,39-13.69
			c7.94-6.99,12.88-20.69,12.88-35.77c0-20.1-9.8-32.31-15.63-37.81C678.04,571.39,661.08,568.56,638.53,568.56z"/>
	</g>
	<g>
		<path class="st0" d="M745.57,676.79c-2.34-1.1-2.53-1.65-2.53-5.86c0-7.69,0.78-13.92,0.97-16.48c0-1.65,0.39-2.56,1.36-2.56
			c0.98,0,1.56,0.55,1.56,1.83c0,1.28,0,3.48,0.58,5.68c2.73,11.35,15.57,15.38,27.05,15.38c16.93,0,25.69-8.97,25.69-20.69
			c0-11.17-6.42-16.48-21.6-27.1l-7.78-5.5c-18.49-13-24.52-22.52-24.52-33.33c0-18.31,15.37-29.3,37.94-29.3
			c6.81,0,13.62,0.92,17.71,1.83c3.31,0.73,4.67,0.73,6.03,0.73s1.75,0.18,1.75,1.1c0,0.73-0.78,5.86-0.78,16.48
			c0,2.38-0.19,3.48-1.36,3.48c-1.16,0-1.36-0.73-1.55-2.01c-0.2-1.83-1.56-6.04-2.53-7.69c-1.17-1.83-6.81-7.69-22.19-7.69
			c-12.45,0-22.77,5.86-22.77,16.84c0,9.89,5.25,15.57,22.19,26.37l4.86,3.11c20.82,13.37,28.02,24.17,28.02,37.54
			c0,9.16-3.69,19.05-15.96,26.56c-7.2,4.39-17.9,5.49-27.24,5.49C762.49,681,752.57,679.9,745.57,676.79z"/>
		<path class="st0" d="M770.47,682.64c-4.74,0-16.74-0.42-25.57-4.35c-3.34-1.57-3.5-3.11-3.5-7.35c0-6.16,0.5-11.43,0.79-14.58
			l0.19-2.03c-0.01-3.67,2.09-4.08,2.99-4.08c1.94,0,3.2,1.36,3.2,3.46c0,1.22,0,3.27,0.52,5.27c2.52,10.45,14.81,14.16,25.47,14.16
			c14.84,0,24.05-7.3,24.05-19.06c0-10.17-5.73-15.14-20.9-25.76l-7.79-5.5c-17.91-12.59-25.21-22.64-25.21-34.67
			c0-18.79,15.53-30.93,39.58-30.93c7.14,0,14.02,0.97,18.06,1.87c3.13,0.7,4.36,0.7,5.67,0.7c0.93,0,3.39,0,3.39,2.74
			c0,0.17-0.03,0.57-0.1,1.19c-0.2,2.08-0.68,6.95-0.68,15.28c0,1.79,0,5.11-3,5.11c-2.66,0-3-2.3-3.17-3.41
			c-0.19-1.74-1.49-5.69-2.33-7.11c-0.15-0.23-4.59-6.88-20.77-6.88c-9.75,0-21.13,3.98-21.13,15.21c0,8.99,4.41,14.13,21.43,24.99
			l4.86,3.11c20.44,13.13,28.77,24.4,28.77,38.92c0,11.74-5.63,21.15-16.74,27.95C792.33,680.71,782.88,682.64,770.47,682.64z
			 M745.42,656.97c-0.29,3.12-0.75,8.15-0.75,13.96c0,3.63,0,3.63,1.59,4.38c8.24,3.66,19.68,4.06,24.21,4.06
			c11.8,0,20.67-1.76,26.39-5.25c10.06-6.16,15.17-14.63,15.17-25.16c0-13.43-7.64-23.56-27.27-36.16l-4.86-3.11
			c-16.18-10.33-22.94-16.46-22.94-27.75c0-11.05,9.81-18.48,24.4-18.48c17.66,0,23.01,7.58,23.57,8.44
			c0.83,1.41,1.88,4.33,2.43,6.58c0.02-8.17,0.5-12.99,0.7-15.07c0.01-0.12,0.02-0.23,0.03-0.33c-1.32-0.03-2.91,0.01-6.45-0.77
			c-3.71-0.83-10.47-1.8-17.36-1.8c-22.4,0-36.31,10.6-36.31,27.66c0,10.82,6.9,20.09,23.82,32l7.79,5.5
			c14.65,10.25,22.29,16.17,22.29,28.44c0,13.57-10.72,22.33-27.32,22.33c-11.91,0-25.69-4.37-28.64-16.63
			C745.66,658.82,745.52,657.86,745.42,656.97z"/>
	</g>
	<g>
		<path class="st0" d="M954.56,633.76c0,15.02,0.19,27.29,0.97,33.69c0.58,4.58,0.97,7.51,6.22,8.24c2.34,0.36,6.23,0.73,7.59,0.73
			c1.17,0,1.56,0.73,1.56,1.28c0,0.73-0.98,1.28-2.92,1.28c-9.34,0-20.24-0.55-21.21-0.55c-0.77,0-11.87,0.55-16.93,0.55
			c-1.95,0-2.72-0.36-2.72-1.28c0-0.55,0.39-1.28,1.36-1.28c1.55,0,3.5-0.37,5.06-0.73c3.5-0.73,4.08-3.85,4.67-8.42
			c0.77-6.41,0.77-18.13,0.77-33.14v-15.57c0-0.73-0.39-0.91-0.97-0.91h-71.41c-0.59,0-0.98,0.19-0.98,0.91v15.57
			c0,15.02,0,26.92,0.78,33.33c0.59,4.58,1.17,7.51,6.23,8.24c2.53,0.36,6.22,0.73,7.78,0.73c0.97,0,1.36,0.73,1.36,1.28
			c0,0.73-0.78,1.28-2.72,1.28c-9.53,0-20.43-0.55-21.21-0.55c-0.97,0-11.87,0.55-17.13,0.55c-1.75,0-2.72-0.36-2.72-1.28
			c0-0.55,0.39-1.28,1.36-1.28c1.56,0,3.7-0.37,5.26-0.73c3.3-0.73,3.69-3.66,4.47-8.24c0.97-6.41,0.97-18.68,0.97-33.69v-27.47
			c0-24.17,0-28.56-0.39-33.51c-0.39-5.31-1.36-7.87-7-8.61c-1.36-0.18-4.28-0.36-5.84-0.36c-0.58,0-1.36-0.73-1.36-1.28
			c0-0.92,0.78-1.28,2.73-1.28c7.78,0,18.68,0.36,19.65,0.36c0.78,0,11.68-0.36,16.93-0.36c1.94,0,2.72,0.36,2.72,1.28
			c0,0.55-0.78,1.28-1.36,1.28c-1.17,0-2.33,0-4.28,0.36c-4.67,0.92-5.64,3.12-6.03,8.61c-0.2,4.95-0.2,9.71-0.2,33.88v3.3
			c0,0.91,0.39,0.91,0.98,0.91h71.41c0.58,0,0.97,0,0.97-0.91v-3.3c0-24.17-0.19-28.93-0.39-33.88c-0.38-5.31-1.16-7.87-6.81-8.61
			c-1.37-0.18-4.28-0.36-5.84-0.36c-0.78,0-1.36-0.73-1.36-1.28c0-0.92,0.78-1.28,2.72-1.28c7.59,0,18.68,0.36,19.46,0.36
			c0.98,0,11.87-0.36,16.93-0.36c1.94,0,2.92,0.36,2.92,1.28c0,0.55-0.78,1.28-1.56,1.28c-1.17,0-2.14,0-4.28,0.36
			c-4.47,0.92-5.45,3.12-5.84,8.61c-0.38,4.95-0.38,9.34-0.38,33.51V633.76z"/>
		<path class="st0" d="M967.99,680.62c-7.09,0-15.1-0.32-18.95-0.47c-1.22-0.05-2.03-0.08-2.26-0.08c-0.21,0-1.22,0.05-2.66,0.1
			c-3.7,0.16-10.59,0.45-14.26,0.45c-2.89,0-4.36-0.98-4.36-2.92c0-1.43,1.12-2.91,3-2.91c1.13,0,2.75-0.24,4.69-0.69
			c2.22-0.47,2.79-2.16,3.42-7.04c0.76-6.29,0.76-18.05,0.76-32.93v-14.84h-70.09v14.84c0,14.98,0,26.82,0.77,33.13
			c0.61,4.71,1.11,6.28,4.84,6.82c2.66,0.38,6.19,0.72,7.55,0.72c1.88,0,3,1.48,3,2.91c0,0.68-0.31,2.92-4.36,2.92
			c-7.44,0-15.81-0.34-19.39-0.48c-1.01-0.05-1.66-0.07-1.83-0.07c-0.29,0-1.45,0.05-3.07,0.12c-3.87,0.17-10.34,0.43-14.05,0.43
			c-3.79,0-4.36-1.83-4.36-2.92c0-1.43,1.12-2.91,3-2.91c1.42,0,3.46-0.36,4.89-0.69c2.03-0.45,2.4-2.01,3.16-6.47l0.08-0.45
			c0.95-6.26,0.95-18.84,0.95-33.42v-27.47c0-24.15,0-28.5-0.38-33.38c-0.38-5.07-1.11-6.53-5.58-7.11
			c-1.32-0.17-4.16-0.35-5.63-0.35c-1.48,0-3-1.47-3-2.91c0-1.94,1.47-2.92,4.36-2.92c5.76,0,13.23,0.2,17.14,0.3
			c1.35,0.04,2.26,0.06,2.51,0.06c0.21,0,1.19-0.03,2.61-0.07c3.76-0.1,10.52-0.29,14.32-0.29c2.89,0,4.36,0.98,4.36,2.92
			c0,1.44-1.51,2.91-3,2.91c-1.12,0-2.18,0-3.98,0.34c-3.53,0.7-4.33,1.89-4.7,7.11c-0.19,4.86-0.19,9.84-0.19,33.77v2.57h70.09
			v-2.57c0-24.12-0.19-28.82-0.39-33.8c-0.37-5.13-1.04-6.51-5.38-7.07c-1.33-0.17-4.17-0.35-5.63-0.35c-1.76,0-3-1.53-3-2.91
			c0-1.94,1.46-2.92,4.36-2.92c5.77,0,13.55,0.21,17.32,0.31c1.18,0.03,1.95,0.05,2.13,0.05c0.29,0,1.5-0.03,3.18-0.08
			c3.88-0.1,10.23-0.28,13.76-0.28c3.02,0,4.56,0.98,4.56,2.92c0,1.5-1.55,2.91-3.2,2.91c-1.12,0-2,0-4.01,0.34
			c-3.35,0.69-4.12,1.89-4.49,7.11c-0.38,4.9-0.38,9.25-0.38,33.39v27.47c0,12.66,0.12,26.54,0.96,33.5
			c0.62,4.86,0.97,6.28,4.82,6.81c2.4,0.38,6.17,0.72,7.37,0.72c2.1,0,3.2,1.46,3.2,2.91C972.55,678.39,972.22,680.62,967.99,680.62
			z M866.61,616.01h71.41c1.58,0,2.61,1,2.61,2.55v15.57c0,14.99,0,26.83-0.79,33.34c-0.53,4.13-1.13,8.79-5.91,9.82
			c3.45-0.1,7.5-0.27,10.04-0.37c1.53-0.06,2.58-0.11,2.81-0.11c0.24,0,1.1,0.03,2.39,0.08c2.63,0.1,7.23,0.29,12.12,0.39
			c-6.28-0.97-6.81-5.17-7.37-9.62c-0.69-5.67-0.98-15.81-0.98-33.9v-27.47c0-24.26,0-28.63,0.39-33.64
			c0.37-5.25,1.41-8.34,5.71-9.71c-3.09,0.06-6.54,0.16-8.99,0.22c-1.73,0.05-2.96,0.08-3.27,0.08c-0.19,0-1-0.02-2.22-0.05
			c-2.38-0.07-6.39-0.17-10.47-0.24c5.12,1.37,5.81,4.95,6.15,9.71c0.2,5.08,0.4,9.82,0.4,33.99v3.3c0,0.95-0.34,2.55-2.61,2.55
			h-71.41c-2.27,0-2.61-1.6-2.61-2.55v-3.3c0-23.98,0-28.97,0.2-33.94c0.38-5.32,1.44-8.41,5.86-9.78c-3.34,0.06-7.05,0.17-9.5,0.24
			c-1.46,0.04-2.48,0.07-2.7,0.07c-0.26,0-1.2-0.03-2.6-0.06c-2.46-0.06-6.34-0.17-10.31-0.24c5.3,1.43,6.05,5.26,6.37,9.71
			c0.4,5,0.4,9.37,0.4,33.63v27.47c0,15.31,0,27.41-0.99,33.94l-0.08,0.47c-0.74,4.37-1.39,8.15-5.62,9.11
			c3.28-0.1,7.04-0.25,9.62-0.36c1.7-0.07,2.91-0.12,3.21-0.12c0.18,0,0.87,0.03,1.96,0.07c2.46,0.1,7.21,0.29,12.35,0.4
			c-6.27-1.02-6.83-5.39-7.37-9.61c-0.79-6.52-0.79-18.45-0.79-33.54v-15.57C863.99,617.01,865.02,616.01,866.61,616.01z"/>
	</g>
	<g>
		<path class="st0" d="M1052.64,559.05c38.53,0,67.72,22.16,67.72,58.41c0,34.79-27.44,63.54-68.69,63.54
			c-46.9,0-66.94-33.14-66.94-61.16C984.72,594.76,1005.35,559.05,1052.64,559.05z M1056.53,674.59c15.37,0,46.31-7.69,46.31-52.74
			c0-37.36-24.13-56.95-51.18-56.95c-28.61,0-49.24,16.85-49.24,50.72C1002.43,651.89,1025.59,674.59,1056.53,674.59z"/>
		<path class="st0" d="M1051.67,682.64c-47.12,0-68.58-32.55-68.58-62.79c0-25.92,21.58-62.43,69.55-62.43
			c41.48,0,69.36,24.13,69.36,60.05C1121.99,654.62,1091.76,682.64,1051.67,682.64z M1052.64,560.68
			c-45.71,0-66.28,34.6-66.28,59.16c0,28.67,20.43,59.52,65.31,59.52c38.86,0,67.06-26.03,67.06-61.91
			C1118.72,583.5,1092.17,560.68,1052.64,560.68z M1056.53,676.23c-32.81,0-55.73-24.92-55.73-60.6c0-32.79,19.02-52.36,50.87-52.36
			c25.44,0,52.81,18.33,52.81,58.58C1104.48,673.61,1064.54,676.23,1056.53,676.23z M1051.67,566.54c-29.8,0-47.6,18.35-47.6,49.09
			c0,34.29,21.08,57.32,52.46,57.32c10.48,0,44.68-3.69,44.68-51.1C1101.21,583.65,1076.33,566.54,1051.67,566.54z"/>
	</g>
	<g>
		<path class="st0" d="M1148.19,606.29c0-24.17,0-28.56-0.39-33.51c-0.39-5.31-1.36-7.87-7-8.61c-1.36-0.18-4.28-0.36-5.84-0.36
			c-0.58,0-1.36-0.73-1.36-1.28c0-0.92,0.78-1.28,2.73-1.28c7.78,0,18.49,0.36,19.85,0.36c3.69,0,16.54-0.36,24.32-0.36
			c21.99,0,29.78,6.41,32.7,8.79c3.89,3.29,8.56,10.25,8.56,18.67c0,22.34-17.9,37.18-44.17,37.18c-0.98,0-3.89,0-4.87-0.19
			c-0.77,0-1.75-0.74-1.75-1.46c0-1.28,0.98-1.65,4.48-1.65c18.49,0,31.72-10.99,31.72-25.09c0-5.12-0.59-15.2-9.73-23.62
			c-8.95-8.42-19.27-7.51-23.16-7.51c-2.92,0-7.78,0.73-9.53,1.1c-0.98,0.19-1.36,1.28-1.36,2.93v63.36c0,15.02,0,27.29,0.77,33.69
			c0.59,4.58,1.56,7.51,6.81,8.24c2.34,0.36,6.03,0.73,7.59,0.73c0.97,0,1.36,0.73,1.36,1.28c0,0.73-0.78,1.28-2.72,1.28
			c-9.34,0-20.63-0.55-21.41-0.55c-0.58,0-11.67,0.55-16.93,0.55c-1.75,0-2.72-0.36-2.72-1.28c0-0.55,0.39-1.28,1.36-1.28
			c1.56,0,3.7-0.37,5.26-0.73c3.3-0.73,3.69-3.66,4.47-8.24c0.97-6.41,0.97-18.68,0.97-33.69V606.29z"/>
		<path class="st0" d="M1177.19,680.62c-7.28,0-15.85-0.34-19.5-0.48c-1.05-0.05-1.74-0.07-1.9-0.07c-0.16,0-0.93,0.04-2.08,0.08
			c-3.53,0.15-10.88,0.47-14.86,0.47c-3.79,0-4.36-1.83-4.36-2.92c0-1.43,1.12-2.91,3-2.91c1.42,0,3.46-0.36,4.89-0.69
			c2.03-0.45,2.4-2.01,3.16-6.47l0.08-0.45c0.95-6.26,0.95-18.84,0.95-33.42v-27.47c0-24.15,0-28.5-0.38-33.38
			c-0.38-5.07-1.11-6.53-5.58-7.11c-1.32-0.17-4.16-0.35-5.63-0.35c-1.48,0-3-1.47-3-2.91c0-1.94,1.47-2.92,4.36-2.92
			c5.5,0,12.46,0.18,16.56,0.29c1.69,0.04,2.89,0.08,3.28,0.08c1.5,0,4.52-0.06,8.09-0.13c5.21-0.1,11.61-0.23,16.23-0.23
			c22.51,0,30.64,6.64,33.71,9.14c4.26,3.61,9.19,10.97,9.19,19.96c0,23.22-18.41,38.81-45.81,38.81c-2.8,0-4.4-0.06-5.18-0.21
			c-1.25-0.13-3.08-1.34-3.08-3.07c0-3.28,3.53-3.28,6.12-3.28c17.15,0,30.08-10.08,30.08-23.45c0-3.45,0-13.94-9.2-22.42
			c-6.77-6.36-14.31-7.11-19.4-7.11l-2.65,0.03c-2.65,0-7.32,0.68-9.15,1.05c0.03,0.05-0.11,0.43-0.11,1.34v63.36
			c0,15.19,0,27.19,0.76,33.5c0.59,4.63,1.46,6.27,5.41,6.81c2.39,0.38,5.96,0.72,7.37,0.72c1.88,0,3,1.48,3,2.91
			C1181.54,678.39,1181.23,680.62,1177.19,680.62z M1143.06,562.95c5.3,1.43,6.04,5.26,6.37,9.71c0.4,5,0.4,9.37,0.4,33.63v27.47
			c0,15.31,0,27.41-0.99,33.94l-0.08,0.47c-0.74,4.38-1.39,8.15-5.62,9.11c3.7-0.1,7.99-0.29,10.43-0.39
			c1.24-0.06,2.07-0.09,2.22-0.09c0.18,0,0.91,0.03,2.03,0.07c2.54,0.1,7.48,0.29,12.68,0.4c-6.33-0.97-7.39-5.1-7.97-9.61
			c-0.79-6.52-0.79-18.61-0.79-33.91V570.4c0-3.33,1.46-4.31,2.69-4.54c1.81-0.38,6.75-1.12,9.84-1.12l2.65-0.03
			c3.25,0,13.14,0,21.62,7.99c10.25,9.43,10.25,21.01,10.25,24.81c0,15.23-14.34,26.72-33.36,26.72c-0.1,0-0.2,0-0.29,0
			c0.62,0.02,1.42,0.03,2.43,0.03c25.45,0,42.54-14.28,42.54-35.54c0-7.37-4.01-14.06-7.98-17.43c-2.82-2.3-10.3-8.4-31.64-8.4
			c-4.6,0-10.97,0.13-16.17,0.23c-3.6,0.08-6.64,0.13-8.15,0.13c-0.41,0-1.64-0.03-3.37-0.08
			C1150.29,563.11,1146.71,563.01,1143.06,562.95z"/>
	</g>
	<g>
		<path class="st0" d="M1251.52,606.29c0-24.17,0-28.56-0.39-33.51c-0.39-5.31-1.36-7.87-7-8.61c-1.36-0.18-4.28-0.36-5.84-0.36
			c-0.58,0-1.36-0.73-1.36-1.28c0-0.92,0.78-1.28,2.73-1.28c7.78,0,18.49,0.36,19.85,0.36c3.69,0,16.54-0.36,24.32-0.36
			c21.99,0,29.78,6.41,32.7,8.79c3.89,3.29,8.56,10.25,8.56,18.67c0,22.34-17.9,37.18-44.17,37.18c-0.98,0-3.89,0-4.87-0.19
			c-0.77,0-1.75-0.74-1.75-1.46c0-1.28,0.98-1.65,4.48-1.65c18.49,0,31.72-10.99,31.72-25.09c0-5.12-0.59-15.2-9.73-23.62
			c-8.95-8.42-19.27-7.51-23.16-7.51c-2.92,0-7.78,0.73-9.53,1.1c-0.98,0.19-1.36,1.28-1.36,2.93v63.36c0,15.02,0,27.29,0.77,33.69
			c0.59,4.58,1.56,7.51,6.81,8.24c2.34,0.36,6.03,0.73,7.59,0.73c0.97,0,1.36,0.73,1.36,1.28c0,0.73-0.78,1.28-2.72,1.28
			c-9.34,0-20.63-0.55-21.41-0.55c-0.58,0-11.67,0.55-16.93,0.55c-1.75,0-2.72-0.36-2.72-1.28c0-0.55,0.39-1.28,1.36-1.28
			c1.56,0,3.7-0.37,5.26-0.73c3.3-0.73,3.69-3.66,4.47-8.24c0.97-6.41,0.97-18.68,0.97-33.69V606.29z"/>
		<path class="st0" d="M1280.52,680.62c-7.28,0-15.85-0.34-19.5-0.48c-1.05-0.05-1.74-0.07-1.9-0.07c-0.16,0-0.93,0.04-2.08,0.08
			c-3.53,0.15-10.88,0.47-14.86,0.47c-3.79,0-4.36-1.83-4.36-2.92c0-1.43,1.12-2.91,3-2.91c1.42,0,3.46-0.36,4.89-0.69
			c2.03-0.45,2.4-2.01,3.16-6.47l0.08-0.45c0.95-6.26,0.95-18.84,0.95-33.42v-27.47c0-24.15,0-28.5-0.38-33.38
			c-0.38-5.07-1.11-6.53-5.58-7.11c-1.32-0.17-4.16-0.35-5.63-0.35c-1.48,0-3-1.47-3-2.91c0-1.94,1.47-2.92,4.36-2.92
			c5.5,0,12.46,0.18,16.56,0.29c1.69,0.04,2.89,0.08,3.28,0.08c1.5,0,4.52-0.06,8.09-0.13c5.21-0.1,11.61-0.23,16.23-0.23
			c22.51,0,30.64,6.64,33.71,9.14c4.26,3.61,9.19,10.97,9.19,19.96c0,23.22-18.41,38.81-45.81,38.81c-2.8,0-4.4-0.06-5.18-0.21
			c-0.01,0-0.03,0-0.04,0c-1.26,0-3.04-1.35-3.04-3.07c0-3.28,3.53-3.28,6.12-3.28c17.15,0,30.08-10.08,30.08-23.45
			c0-3.45,0-13.94-9.2-22.42c-6.77-6.36-14.31-7.11-19.4-7.11l-2.65,0.03c-2.65,0-7.32,0.68-9.15,1.05
			c0.03,0.05-0.11,0.43-0.11,1.34v63.36c0,15.19,0,27.19,0.76,33.5c0.59,4.63,1.46,6.27,5.41,6.81c2.39,0.38,5.96,0.72,7.37,0.72
			c1.88,0,3,1.48,3,2.91C1284.88,678.39,1284.56,680.62,1280.52,680.62z M1246.39,562.95c5.3,1.43,6.05,5.26,6.37,9.71
			c0.4,5,0.4,9.37,0.4,33.63v27.47c0,15.31,0,27.41-0.99,33.94l-0.08,0.47c-0.74,4.38-1.39,8.15-5.62,9.11
			c3.7-0.1,7.99-0.29,10.43-0.39c1.24-0.06,2.07-0.09,2.22-0.09c0.18,0,0.91,0.03,2.03,0.07c2.54,0.1,7.48,0.29,12.68,0.4
			c-6.33-0.97-7.39-5.1-7.97-9.61c-0.79-6.52-0.79-18.61-0.79-33.91V570.4c0-3.33,1.46-4.31,2.69-4.54
			c1.81-0.38,6.75-1.12,9.84-1.12l2.65-0.03c3.25,0,13.14,0,21.62,7.99c10.25,9.43,10.25,21.01,10.25,24.81
			c0,15.23-14.34,26.72-33.36,26.72c-0.1,0-0.2,0-0.29,0c0.62,0.02,1.42,0.03,2.43,0.03c25.45,0,42.54-14.28,42.54-35.54
			c0-7.37-4.01-14.06-7.98-17.43c-2.82-2.3-10.3-8.4-31.64-8.4c-4.6,0-10.97,0.13-16.17,0.23c-3.6,0.08-6.64,0.13-8.15,0.13
			c-0.41,0-1.64-0.03-3.37-0.08C1253.62,563.11,1250.04,563.01,1246.39,562.95z"/>
	</g>
	<g>
		<path class="st0" d="M1354.86,606.29c0-24.17,0-28.56-0.39-33.51c-0.39-5.31-1.36-7.87-7-8.61c-1.36-0.18-4.28-0.36-5.84-0.36
			c-0.58,0-1.36-0.73-1.36-1.28c0-0.92,0.78-1.28,2.73-1.28c7.78,0,18.88,0.36,19.85,0.36c1.17,0,36.97,0.19,40.86,0
			c3.31-0.18,6.42-0.73,7.78-0.91c0.78-0.19,1.56-0.73,2.34-0.73c0.58,0,0.77,0.73,0.77,1.47c0,1.1-0.97,2.93-1.36,7.32
			c-0.19,1.46-0.58,8.42-0.97,10.26c-0.2,0.73-0.78,1.65-1.56,1.65c-0.97,0-1.36-0.73-1.36-2.02c0-1.1-0.19-3.66-0.97-5.49
			c-1.17-2.57-2.92-3.66-12.26-4.76c-2.91-0.37-22.77-0.55-24.71-0.55c-0.78,0-0.98,0.55-0.98,1.65v42.3c0,1.1,0,1.65,0.98,1.65
			c2.14,0,24.71,0,28.6-0.36c4.09-0.37,6.62-0.55,8.37-2.2c1.17-1.1,1.94-2.01,2.53-2.01c0.58,0,0.97,0.36,0.97,1.28
			c0,0.91-0.97,3.48-1.36,8.61c-0.39,3.11-0.78,8.97-0.78,10.07c0,1.28-0.39,2.93-1.56,2.93c-0.77,0-1.16-0.55-1.16-1.47
			c0-1.46,0-3.11-0.78-5.12c-0.59-2.2-2.14-4.03-8.76-4.76c-4.66-0.55-22.96-0.73-25.88-0.73c-0.97,0-1.17,0.55-1.17,1.1v13
			c0,5.31-0.19,23.44,0,26.55c0.39,10.43,3.51,12.45,20.43,12.45c4.47,0,12.65,0,17.13-1.65c4.47-1.83,6.81-4.58,7.78-10.81
			c0.39-1.83,0.78-2.38,1.75-2.38c0.97,0,1.17,1.28,1.17,2.38s-1.36,11.72-2.34,15.02c-1.16,4.03-2.91,4.03-9.53,4.03
			c-12.84,0-22.77-0.36-29.77-0.55c-7.2-0.36-11.67-0.36-14.2-0.36c-0.39,0-3.7,0-7.39,0.19c-3.31,0.18-7.2,0.36-9.93,0.36
			c-1.75,0-2.72-0.36-2.72-1.28c0-0.55,0.39-1.28,1.36-1.28c1.56,0,3.7-0.55,5.26-0.73c3.3-0.55,3.69-3.66,4.47-8.24
			c0.97-6.41,0.97-18.68,0.97-33.69V606.29z"/>
		<path class="st0" d="M1406.82,680.99c-10.63,0-19.09-0.24-25.89-0.44l-3.93-0.11c-7.2-0.36-11.55-0.36-14.16-0.36
			c-0.38,0-3.66,0-7.31,0.19c-3.34,0.18-7.26,0.36-10.01,0.36c-3.79,0-4.36-1.83-4.36-2.92c0-1.43,1.12-2.91,3-2.91
			c0.84,0,1.97-0.2,3.07-0.4c0.71-0.13,1.39-0.25,2-0.32c1.78-0.3,2.19-1.8,2.96-6.33l0.1-0.56c0.95-6.26,0.95-18.84,0.95-33.42
			v-27.47c0-24.15,0-28.5-0.38-33.38c-0.38-5.07-1.11-6.53-5.58-7.11c-1.32-0.17-4.16-0.35-5.63-0.35c-1.48,0-3-1.47-3-2.91
			c0-1.94,1.47-2.92,4.36-2.92c5.76,0,13.34,0.2,17.3,0.3c1.37,0.04,2.3,0.06,2.55,0.06l2.24,0.01c4.97,0.03,17.13,0.08,26.56,0.08
			c6.83,0,10.86-0.03,11.99-0.08c2.56-0.13,4.99-0.5,6.6-0.75l1.04-0.15c0.07-0.02,0.29-0.13,0.52-0.22
			c0.56-0.24,1.25-0.53,2.04-0.53c1.11,0,2.41,0.81,2.41,3.11c0,0.63-0.17,1.28-0.39,2.09c-0.31,1.18-0.75,2.79-0.98,5.38
			c-0.08,0.58-0.17,1.8-0.27,3.21c-0.26,3.37-0.47,6.05-0.73,7.23c-0.4,1.51-1.53,2.95-3.16,2.95c-0.7,0-3-0.26-3-3.66
			c0-1.16-0.22-3.4-0.84-4.85c-0.76-1.66-1.65-2.68-10.95-3.78c-2.58-0.33-19.81-0.51-23.86-0.54c0,0.01,0,0.01,0,0.01v42.3
			c0,0.01,0,0.01,0,0.01c5.39,0,24.33-0.03,27.79-0.36c3.96-0.36,6.12-0.55,7.41-1.76l0.68-0.66c1.03-1.01,1.85-1.8,2.97-1.8
			c1.3,0,2.61,0.9,2.61,2.91c0,0.49-0.13,1.06-0.32,1.91c-0.32,1.42-0.8,3.57-1.05,6.82c-0.39,3.16-0.77,8.96-0.77,9.95
			c0,2.77-1.25,4.57-3.2,4.57c-1.39,0-2.8-0.96-2.8-3.11c0-1.38,0-2.81-0.67-4.54c-0.34-1.22-0.81-2.99-7.41-3.73
			c-4.3-0.51-20.97-0.7-25.23-0.72v12.47c0,1.5-0.01,4-0.03,6.9c-0.04,7.33-0.11,17.37,0.03,19.55c0.33,9,1.99,10.92,18.8,10.92
			c4.32,0,12.36,0,16.56-1.55c3.53-1.45,5.8-3.48,6.73-9.52c0.29-1.37,0.8-3.77,3.37-3.77c0.84,0,2.81,0.39,2.81,4.02
			c0,1.25-1.39,12.05-2.41,15.48C1416.42,680.99,1413.41,680.99,1406.82,680.99z M1362.84,676.8c2.46,0,7.04,0,14.29,0.36l3.9,0.11
			c6.77,0.2,15.21,0.44,25.79,0.44c6.81,0,7.18-0.13,7.96-2.84c0.62-2.08,1.41-7.36,1.89-10.98c-1.3,4.38-3.73,6.96-8.06,8.73
			c-4.8,1.77-13.22,1.77-17.75,1.77c-16.69,0-21.62-1.84-22.07-14.03c-0.14-2.26-0.08-11.95-0.03-19.74
			c0.02-2.89,0.03-5.39,0.03-6.88v-13c0-1.66,1.1-2.74,2.81-2.74c2.01,0,21.12,0.16,26.07,0.75c6.26,0.69,9.2,2.42,10.15,5.96
			c0.18,0.45,0.31,0.88,0.42,1.3c0.15-2.34,0.41-5.51,0.66-7.5c0.24-3.18,0.72-5.45,1.04-6.89l-0.44,0.42
			c-2.1,1.98-4.83,2.22-8.95,2.59c-4.06,0.38-23.32,0.41-29.14,0.41c-2.61,0-2.61-2.38-2.61-3.28v-42.3c0-2.86,1.64-3.28,2.61-3.28
			c1.34,0,21.79,0.17,24.91,0.56c9.3,1.09,11.96,2.21,13.55,5.71c0.61,1.41,0.9,3.16,1.04,4.54c0.15-1.46,0.31-3.5,0.44-5.14
			c0.11-1.5,0.21-2.78,0.28-3.32c0.25-2.81,0.74-4.65,1.07-5.87c0.07-0.25,0.14-0.51,0.19-0.73c-0.34,0.14-0.67,0.27-1.01,0.34
			l-1.15,0.17c-1.57,0.24-4.2,0.64-6.92,0.79c-1.2,0.06-5.18,0.08-12.15,0.08c-9.43,0-21.6-0.05-26.57-0.08l-2.23-0.01
			c-0.26,0-1.21-0.03-2.63-0.06c-2.5-0.06-6.46-0.17-10.48-0.24c5.3,1.43,6.04,5.25,6.37,9.71c0.4,5,0.4,9.37,0.4,33.63v27.47
			c0,15.31,0,27.41-0.99,33.94l-0.1,0.58c-0.73,4.35-1.37,8.12-5.42,8.97c1.78-0.07,3.65-0.17,5.37-0.26
			C1359.1,676.8,1362.44,676.8,1362.84,676.8z"/>
	</g>
	<g>
		<path class="st0" d="M1454.1,606.29c0-24.17,0-28.56-0.39-33.51c-0.39-5.31-1.36-7.87-7-8.61c-1.36-0.18-4.28-0.36-5.84-0.36
			c-0.58,0-1.36-0.73-1.36-1.28c0-0.92,0.78-1.28,2.73-1.28c7.78,0,19.26,0.36,20.24,0.36c1.75,0,16.15-0.36,21.41-0.36
			c10.89,0,22.96,0.91,31.91,6.77c4.28,2.93,11.87,10.44,11.87,21.24c0,11.54-5.06,22.71-21.02,35.53
			c14.01,16.48,25.88,30.58,35.8,40.28c9.14,8.79,14.79,10.26,19.07,10.81c3.31,0.55,5.06,0.55,6.03,0.55
			c0.98,0,1.56,0.73,1.56,1.28c0,0.92-0.97,1.28-4.08,1.28h-10.7c-9.73,0-14.01-0.91-18.29-3.11c-7.39-3.66-13.62-11.17-23.35-22.89
			c-7.2-8.42-14.79-18.5-18.49-22.71c-0.78-0.73-1.17-0.91-2.34-0.91l-21.8-0.36c-0.77,0-1.16,0.36-1.16,1.28v3.67
			c0,15.01,0,27.1,0.77,33.51c0.59,4.58,1.56,7.51,6.81,8.24c2.34,0.36,6.03,0.73,7.59,0.73c1.17,0,1.36,0.73,1.36,1.28
			c0,0.73-0.78,1.28-2.72,1.28c-9.34,0-20.24-0.55-21.02-0.55c-0.2,0-11.67,0.55-16.93,0.55c-1.75,0-2.72-0.36-2.72-1.28
			c0-0.55,0.39-1.28,1.36-1.28c1.56,0,3.7-0.37,5.26-0.73c3.3-0.73,3.69-3.66,4.47-8.24c0.97-6.41,0.97-18.68,0.97-33.69V606.29z
			 M1468.89,619.48c0,0.91,0.39,1.46,1.16,2.01c2.53,1.28,11.29,2.38,18.88,2.38c4.09,0,8.76-0.18,12.84-2.74
			c5.84-3.67,10.31-11.9,10.31-23.81c0-19.41-11.28-30.58-29.58-30.58c-5.05,0-10.51,0.55-12.26,0.91
			c-0.78,0.36-1.36,0.91-1.36,1.83V619.48z"/>
		<path class="st0" d="M1565.03,680.62h-10.7c-9.44,0-14.25-0.83-19.04-3.29c-7.68-3.81-14.12-11.56-23.85-23.3
			c-3.96-4.62-7.97-9.67-11.5-14.12c-2.85-3.58-5.3-6.66-6.96-8.56c-0.4-0.36-0.4-0.36-1.11-0.36l-21.32-0.36l-0.01,3.3
			c0,15.09,0,27,0.76,33.31c0.59,4.63,1.46,6.27,5.41,6.81c2.39,0.38,5.96,0.72,7.37,0.72c1.8,0,3,1.17,3,2.91
			c0,0.68-0.31,2.92-4.36,2.92c-7.28,0-15.61-0.34-19.16-0.48c-1.02-0.05-1.69-0.07-1.85-0.07l-0.84,0.04
			c-2.88,0.13-11.65,0.51-16.09,0.51c-3.79,0-4.36-1.83-4.36-2.92c0-1.43,1.12-2.91,3-2.91c1.42,0,3.46-0.36,4.89-0.69
			c2.03-0.45,2.4-2.01,3.16-6.47l0.08-0.45c0.95-6.26,0.95-18.84,0.95-33.42v-27.47c0-24.15,0-28.5-0.38-33.38
			c-0.38-5.07-1.11-6.53-5.58-7.11c-1.32-0.17-4.16-0.35-5.63-0.35c-1.48,0-3-1.47-3-2.91c0-1.94,1.47-2.92,4.36-2.92
			c5.76,0,13.54,0.2,17.61,0.3c1.41,0.04,2.38,0.06,2.63,0.06c0.64,0,2.96-0.05,5.9-0.11c5.14-0.11,12.17-0.26,15.51-0.26
			c10.9,0,23.33,0.84,32.81,7.04c2.13,1.46,12.61,9.31,12.61,22.61c0,13.04-6.28,24.12-20.33,35.74l1.34,1.57
			c12.87,15.15,23.99,28.24,33.29,37.33c8.46,8.14,13.72,9.78,18.14,10.35c3.23,0.54,4.91,0.54,5.82,0.54c1.91,0,3.2,1.51,3.2,2.91
			C1570.75,680.62,1567.17,680.62,1565.03,680.62z M1470.06,627.36l21.82,0.36c1.51,0,2.32,0.32,3.43,1.36
			c1.8,2.03,4.28,5.16,7.17,8.8c3.53,4.43,7.52,9.45,11.44,14.05c9.49,11.44,15.75,18.98,22.83,22.49
			c3.81,1.96,7.56,2.94,17.57,2.94h5.97c-4.72-0.75-10.4-2.86-18.97-11.1c-9.42-9.21-20.58-22.35-33.51-37.57l-3.5-4.12l1.32-1.05
			c14.11-11.34,20.4-21.9,20.4-34.25c0-11.65-9.3-18.61-11.16-19.89c-8.73-5.71-20.56-6.49-30.98-6.49
			c-3.33,0-10.32,0.15-15.44,0.26c-2.98,0.06-5.32,0.11-5.97,0.11c-0.26,0-1.25-0.03-2.71-0.06c-2.59-0.06-6.68-0.17-10.8-0.24
			c5.3,1.42,6.05,5.25,6.38,9.71c0.4,5,0.4,9.37,0.4,33.63v27.47c0,15.31,0,27.41-0.99,33.94l-0.08,0.47
			c-0.75,4.38-1.39,8.16-5.63,9.11c4.36-0.12,9.57-0.35,11.67-0.44c0.59-0.03,0.95-0.04,0.98-0.04c0.18,0,0.89,0.03,1.98,0.07
			c2.47,0.1,7.23,0.29,12.33,0.4c-6.33-0.97-7.37-5.1-7.96-9.61c-0.79-6.52-0.79-18.52-0.79-33.72v-3.67
			C1467.26,628.51,1468.36,627.36,1470.06,627.36z M1488.93,625.5c-7,0-16.49-0.98-19.61-2.55c-1.01-0.7-2.06-1.65-2.06-3.48v-49.99
			c0-0.84,0.3-2.38,2.31-3.32c2.22-0.51,7.78-1.07,12.95-1.07c19.55,0,31.22,12.04,31.22,32.21c0,11.42-4.14,20.84-11.08,25.2
			C1498.25,625.27,1493.26,625.5,1488.93,625.5z M1482.51,568.38c-5.12,0-10.4,0.56-11.92,0.88c-0.06,0.07-0.06,0.18-0.06,0.23
			v49.99c0,0.24,0,0.34,0.47,0.68c1.85,0.91,10.04,2.08,17.93,2.08c4.05,0,8.31-0.19,11.97-2.49c5.97-3.75,9.55-12.13,9.55-22.42
			C1510.46,578.93,1500.27,568.38,1482.51,568.38z"/>
	</g>
</g>
<g>
	<path class="st0" d="M1718.78,362.79c-26.59,31.99-39.9,64.89-50.32,104.64c-1.42,5.36,14.92,2.85,16.26-2.27
		c10.17-38.77,23.15-71.16,49.16-102.43C1738.18,357.54,1721.87,359.07,1718.78,362.79L1718.78,362.79z"/>
	<path class="st0" d="M1688.29,469.88c18.1-18.79,37-36.69,54.23-56.3c16.77-19.13,33.96-41.32,56.47-53.97
		c12.8-7.2-6.63-9.67-13.36-5.89c-19.54,11-34.98,28.25-49.97,44.63c-21.23,23.2-42.87,45.76-64.69,68.4
		C1662.24,475.83,1683.59,474.76,1688.29,469.88L1688.29,469.88z"/>
	<path class="st0" d="M1718.21,471.3c-2.25,0-4.45-1.07-5.83-3.07c-2.2-3.23-1.35-7.6,1.86-9.79c3.41-2.33,7.34-5.09,11.69-8.14
		c29.55-20.79,74.22-52.2,109.48-54.99c3.88-0.27,7.28,2.61,7.57,6.47c0.31,3.88-2.59,7.28-6.46,7.58
		c-31.41,2.49-75.91,33.76-102.48,52.47c-4.41,3.11-8.41,5.9-11.86,8.26C1720.95,470.9,1719.56,471.3,1718.21,471.3L1718.21,471.3z"
		/>
	<path class="st0" d="M1774.02,474.83c16.48-5.56,28.7-16.32,43.71-24.61c14.67-8.1,41.13-12.96,57.86-13.45
		c12.44-0.37,16.72-16.5,1.91-16.06c-17.09,0.49-32.28,5.93-48.68,10.12c-9.42,2.42-17.3,4.51-25.87,9.25
		c-11.31,6.23-20.52,15.51-32.97,19.72C1756.94,464.18,1760.72,479.32,1774.02,474.83L1774.02,474.83z"/>
	<path class="st0" d="M1798.09,487.09c28.7-4.15,57.23-2.1,85.43,4.32c5.8,1.32,27.61-8.05,20.58-9.62
		c-33.61-7.65-67.25-8.75-101.33-3.81C1792.73,479.43,1780.44,489.65,1798.09,487.09L1798.09,487.09z"/>
	<path class="st0" d="M1593.84,463.44c7.47-8.35,16.93,0.81,21.54,7.3c4.12,5.76,3.34,13.39,4.31,20.06
		c0.82,5.58,17.23,1.76,16.32-4.37c-0.87-5.89-0.51-12.03-2.86-17.59c-2.98-6.99-8.75-12.8-15.64-15.85
		c-13.29-5.87-29.67-0.24-38.89,10.07c-2.72,3.02,2.29,4.79,4.44,4.84C1587.15,468.02,1591.15,466.46,1593.84,463.44L1593.84,463.44
		z"/>
	<path class="st0" d="M1578.61,494.85c1.56-1.7,6.22-7.37,9.05-7.5c3-0.13,6.05,2.64,8.11,4.45c4.72,4.17,8.12,9.89,11.32,15.22
		c2.71,4.53,18.61-0.59,15.16-6.36c-5.85-9.76-12.77-19.86-24.67-22.14c-13.59-2.61-25.64,6.74-34.14,16.04
		c-2.75,3,2.3,4.68,4.4,4.71C1571.88,499.35,1575.88,497.83,1578.61,494.85L1578.61,494.85z"/>
	<path class="st0" d="M1574.29,524.43c14.95,5.56,28.54-0.65,41.64-7.78c1.79-0.96,7.52-4.71,2.57-5.96
		c-4.66-1.21-11.12,0.45-15.23,2.7c-2.97,1.6-5.86,3.3-8.87,4.84c1.5-0.75,6.36-0.26,3.04-0.81c-1.83-0.29-3.6-1-5.32-1.65
		c-4.42-1.64-11.31,0.79-15.25,2.7C1574.57,519.6,1569.8,522.75,1574.29,524.43L1574.29,524.43z"/>
	<path class="st0" d="M1701.88,576.88c0,5.04-4.08,9.1-9.1,9.1c-5.04,0-9.09-4.06-9.09-9.1c0-5.01,4.06-9.09,9.09-9.09
		C1697.8,567.78,1701.88,571.87,1701.88,576.88z"/>
	<path class="st0" d="M1766.08,575.27c0,5.01-3.72,9.09-8.3,9.09c-4.57,0-8.27-4.08-8.27-9.09c0-5.02,3.7-9.09,8.27-9.09
		C1762.36,566.18,1766.08,570.25,1766.08,575.27z"/>
	<path class="st0" d="M1718.61,654.63c-28.17,0-58.24-6.57-83.23-41.03c-2.28-3.14-1.62-7.55,1.46-9.85
		c3.11-2.34,7.44-1.64,9.69,1.49c25.87,35.66,57.57,36.7,87.9,34.7c30.06-1.8,53.18-9.89,75.59-44.55c2.08-3.23,6.4-4.16,9.6-2.01
		c3.21,2.13,4.09,6.5,2,9.76c-25.53,39.46-52.99,48.87-86.34,50.87C1729.84,654.36,1724.27,654.63,1718.61,654.63L1718.61,654.63z"
		/>
	<path class="st0" d="M1724.76,761.34c-53.53-9.16-78.93-41.6-93.4-65.2c-21.35-34.81-27.92-73.49-30.73-90.01
		c-0.38-2.26-0.7-4.12-0.99-5.49c-0.8-1-5.78-2.37-8.75-3.18c-8.32-2.3-20.93-5.77-21.82-19.04c-1.04-17.83,16.29-20.07,25.61-21.28
		c3.51-0.44,8.31-1.07,9.67-2.09l1.15-0.82c0.52-0.37,0.96-0.67,1.34-0.94c-0.01-0.2-0.03-0.41-0.04-0.65
		c-0.09-1.5-0.19-3.48-0.19-6.16c0-5.29,0.94-9.94,1.85-14.45c0.47-2.2,0.92-4.46,1.26-6.83c0.57-3.86,4.2-6.56,7.97-5.99
		c3.85,0.54,6.52,4.1,5.99,7.96c-0.4,2.66-0.91,5.18-1.41,7.67c-0.82,3.99-1.58,7.75-1.58,11.64c0,2.34,0.1,4.06,0.18,5.38
		c0.4,7.37-1.16,9.58-7.22,13.86l-0.98,0.7c-4.2,3.15-10.02,3.9-16.19,4.7c-12.52,1.62-13.58,2.96-13.35,6.42
		c0.17,2.78,3.53,4.17,11.48,6.35c7.57,2.07,16.97,4.67,18.85,13.99c0.29,1.49,0.63,3.48,1.04,5.91
		c2.68,15.69,8.93,52.5,28.87,84.99c14.12,23.05,35.94,54.14,83.77,58.68c36.13,3.42,71.02-33.6,87.42-63.29
		c10.11-19.02,16.03-56.01,18.85-73.8c0.42-2.56,0.79-5.18,1.15-7.74c2.14-15.09,3.45-24.21,11.39-25.53
		c11.87-1.97,17.08-7.55,16.84-10.7c-0.21-3.18-6.65-8.39-22.97-8.81c-5.21-0.13-8.24-2.42-9.87-4.3
		c-4.45-5.14-3.6-12.35-2.61-20.69c0.64-5.28,1.32-11.25,0.61-16.63c-0.53-3.86,2.18-7.39,6.03-7.93c3.78-0.51,7.39,2.19,7.92,6.03
		c0.98,7.15,0.13,14.37-0.56,20.17c-0.35,2.95-0.86,7.14-0.66,9.25c25.71,0.93,35.48,11.89,36.18,21.92
		c0.8,11.48-9.72,21.52-25.87,25.06c-0.92,3.11-1.84,9.6-2.48,14.15c-0.38,2.64-0.77,5.34-1.18,7.99
		c-4.74,29.64-10.49,59.65-20.38,78.28c-16.56,30.03-46.78,67.74-89.04,70.56C1735.61,761.6,1727.83,761.87,1724.76,761.34z"/>
</g>
<g>
</g>
<g>
</g>
<g>
</g>
<g>
</g>
<g>
</g>
<g>
</g>
</svg>
