<?xml version="1.0" encoding="UTF-8" standalone="no"?>
<!DOCTYPE svg PUBLIC "-//W3C//DTD SVG 1.1//EN" "http://www.w3.org/Graphics/SVG/1.1/DTD/svg11.dtd">
<svg width="100%" height="100%" viewBox="0 0 800 800" version="1.1" xmlns="http://www.w3.org/2000/svg" xmlns:xlink="http://www.w3.org/1999/xlink" xml:space="preserve" xmlns:serif="http://www.serif.com/" style="fill-rule:evenodd;clip-rule:evenodd;stroke-linejoin:round;stroke-miterlimit:2;">
    <path d="M754.669,379.931C745.05,208.364 609.192,65.525 438.416,47.604C389.528,42.2 345.911,41.806 329.44,66.974C314.287,87.268 317.58,121.528 349.073,138.526C403.758,162.905 437.623,219.697 433.275,279.39C428.136,351.205 367.652,409.316 295.572,411.689C243.391,413.271 196.085,387.575 169.071,343.431C160.506,329.462 147.197,320.634 132.307,319.052C62.204,316.549 37.432,370.838 46.523,424.602C58.645,606.051 210.71,751.265 392.687,755.218C612.619,753.899 764.288,585.76 754.669,379.931Z" style="fill-rule:nonzero;"/>
    <path d="M710.92,382.435C680.482,103.738 417.991,75.274 366.996,91.746C364.623,93.854 364.888,95.831 367.655,97.938C439.339,129.959 471.885,204.147 478.08,282.552C470.832,410.238 349.603,456.755 297.421,456.094C260.262,460.179 178.3,439.359 131.52,366.754C105.825,349.886 92.251,377.163 90.407,394.426C78.548,503.137 183.965,710.81 393.878,710.81C396.25,710.81 522.355,720.166 626.323,613.563C685.62,550.971 715.533,469.009 710.92,382.435Z" style="fill:rgb(113,12,21);fill-rule:nonzero;"/>
    <g transform="matrix(1,0,0,1,-8.14249,12.2137)">
        <path d="M569.926,267.133C586.002,267.133 599.048,254.088 599.048,238.012C599.048,221.935 586.002,208.89 569.926,208.89C553.849,208.89 540.804,221.935 540.804,238.012C540.804,254.088 553.849,267.133 569.926,267.133Z" style="fill:white;fill-rule:nonzero;"/>
    </g>
    <path d="M586.398,505.377C602.474,505.377 615.519,492.332 615.519,476.256C615.519,460.179 602.474,447.134 586.398,447.134C570.321,447.134 557.276,460.179 557.276,476.256C557.276,492.332 570.321,505.377 586.398,505.377Z" style="fill:rgb(0,159,255);fill-rule:nonzero;"/>
    <path d="M440.921,613.563C440.921,597.486 427.875,584.441 411.799,584.441C395.723,584.441 382.677,597.486 382.677,613.563C382.677,629.639 395.723,642.685 411.799,642.685C427.875,642.685 440.921,629.639 440.921,613.563Z" style="fill:rgb(0,255,56);fill-rule:nonzero;"/>
    <g transform="matrix(1,0,0,1,8.14249,1.01781)">
        <path d="M232.985,527.516C232.985,511.439 219.94,498.394 203.863,498.394C187.787,498.394 174.741,511.439 174.741,527.516C174.741,543.592 187.787,556.638 203.863,556.638C219.94,556.638 232.985,543.723 232.985,527.516Z" style="fill:rgb(224,86,107);fill-rule:nonzero;"/>
    </g>
    <g>
        <g transform="matrix(1,0,0,1,-8.14249,12.2137)">
            <path d="M569.926,311.541C610.511,311.541 643.455,278.467 643.455,238.012C643.455,197.557 610.381,164.482 569.926,164.482C529.473,164.482 496.396,197.557 496.396,238.012C496.396,278.467 529.471,311.541 569.926,311.541ZM569.926,208.892C586.002,208.892 599.048,221.937 599.048,238.014C599.048,254.09 586.002,267.135 569.926,267.135C553.849,267.135 540.804,254.09 540.804,238.014C540.804,221.937 553.849,208.892 569.926,208.892Z" style="fill:rgb(25,79,130);fill-rule:nonzero;"/>
        </g>
        <path d="M586.398,402.596C545.812,402.596 512.868,435.67 512.868,476.125C512.868,516.58 545.943,549.654 586.398,549.654C626.983,549.654 659.927,516.58 659.927,476.125C659.927,435.67 627.114,402.596 586.398,402.596ZM586.398,505.51C570.321,505.51 557.276,492.464 557.276,476.388C557.276,460.312 570.321,447.266 586.398,447.266C602.474,447.266 615.519,460.312 615.519,476.388C615.519,492.464 602.472,505.51 586.398,505.51Z" style="fill:rgb(25,79,130);fill-rule:nonzero;"/>
        <path d="M411.536,540.033C370.951,540.033 338.007,573.108 338.007,613.563C338.007,654.148 371.081,687.092 411.536,687.092C451.991,687.092 485.065,654.018 485.065,613.563C485.196,572.845 452.252,540.033 411.536,540.033ZM411.536,642.685C395.46,642.685 382.414,629.639 382.414,613.563C382.414,597.486 395.46,584.441 411.536,584.441C427.612,584.441 440.658,597.486 440.658,613.563C440.788,629.639 427.612,642.685 411.536,642.685Z" style="fill:rgb(25,79,130);fill-rule:nonzero;"/>
        <g transform="matrix(1,0,0,1,8.14249,1.01781)">
            <path d="M203.863,454.119C163.278,454.119 130.334,487.193 130.334,527.648C130.334,568.234 163.408,601.178 203.863,601.178C244.318,601.178 277.392,568.103 277.392,527.648C277.392,487.061 244.316,454.119 203.863,454.119ZM203.863,556.901C187.787,556.901 174.741,543.855 174.741,527.779C174.741,511.702 187.787,498.657 203.863,498.657C219.94,498.657 232.985,511.702 232.985,527.779C232.985,543.855 219.94,556.901 203.863,556.901Z" style="fill:rgb(25,79,130);fill-rule:nonzero;"/>
        </g>
    </g>
</svg>
