<?xml version="1.0" encoding="UTF-8" standalone="no"?>
<!DOCTYPE svg PUBLIC "-//W3C//DTD SVG 1.1//EN" "http://www.w3.org/Graphics/SVG/1.1/DTD/svg11.dtd">
<svg width="100%" height="100%" viewBox="0 0 640 479" version="1.1" xmlns="http://www.w3.org/2000/svg" xmlns:xlink="http://www.w3.org/1999/xlink" xml:space="preserve" xmlns:serif="http://www.serif.com/" style="fill-rule:evenodd;clip-rule:evenodd;">
    <g transform="matrix(1.95338,0,0,1.36052,-222.755,-265.729)">
        <g id="Layer-1" serif:id="Layer 1">
            <path id="path7370" d="M272.82,214.73L272.82,254.63C234.36,257.48 200.58,276.97 202.56,320.62C204.6,365.43 258.57,373.58 258.57,373.58C258.57,373.58 264.43,373.63 272.82,374.57L272.82,450.53C269.71,450.28 266.58,449.91 263.47,449.45C226.96,448.85 203.58,428.56 203.58,428.56C201.55,428.56 202.56,441.8 202.56,457.07C217.04,469.74 256.29,474.16 272.82,475.17L272.82,523.25L289.11,524.28L289.11,475.07C320.08,472.7 362.66,457.77 364.46,415.33C366.48,367.99 316.66,353.28 289.11,348.48L289.11,277.75C321.28,278.68 348.18,295.17 348.18,295.17L349.2,263.6C349.2,263.6 322.78,254.81 289.11,254.23L289.11,214.73L272.82,214.73ZM272.82,278.66L272.82,345.95C257.92,343.02 234.43,335.07 233.12,313.5C232.27,299.6 243.32,282.85 272.82,278.66ZM289.11,377.2C310.19,381.76 334.07,392.07 331.89,415.33C329.25,439.98 310.95,449.27 289.11,450.74L289.11,377.2Z" style="stroke:black;stroke-width:2.52px;"/>
        </g>
    </g>
</svg>
