<?xml version="1.0" encoding="UTF-8" standalone="no"?>
<!DOCTYPE svg PUBLIC "-//W3C//DTD SVG 1.1//EN" "http://www.w3.org/Graphics/SVG/1.1/DTD/svg11.dtd">
<svg width="100%" height="100%" viewBox="0 0 640 479" version="1.1" xmlns="http://www.w3.org/2000/svg" xmlns:xlink="http://www.w3.org/1999/xlink" xml:space="preserve" xmlns:serif="http://www.serif.com/" style="fill-rule:evenodd;clip-rule:evenodd;">
    <g transform="matrix(2.37026,0,0,2.26215,2.94487,-403.623)">
        <g id="layer1">
            <g id="g3856">
                <g id="rect2993" transform="matrix(0.93277,-0.36046,0.7016,0.71257,0,0)">
                    <rect x="-226.55" y="322.75" width="202.91" height="64.552" style="fill:white;stroke:rgb(98,1,1);stroke-width:4.43px;"/>
                </g>
                <path id="path2990" d="M117.19,287.24L113.318,282.771L120.143,279.432L124.738,284.098C126.491,283.421 128.38,283.145 130.405,283.271C132.433,283.386 134.89,283.68 137.775,284.152L134.656,290.397C133.254,290.146 132.016,290.029 130.943,290.047C129.87,290.064 128.788,290.284 127.697,290.706C125.566,291.529 124.815,292.49 125.445,293.587C126.149,294.073 127.114,294.295 128.339,294.254C129.565,294.212 131.11,293.994 132.974,293.6C134.863,293.232 135.935,293.033 136.189,293.006C138.49,292.769 140.968,292.856 143.625,293.267C146.313,293.71 148.617,294.878 150.539,296.772C153.608,299.889 153.417,303.177 149.968,306.635C149.616,306.921 149.248,307.191 148.865,307.445C148.503,307.735 148.224,307.953 148.03,308.098L152.624,312.764L145.784,316.281L140.718,311.136C140.718,311.136 140.176,311.257 139.091,311.5C137.944,311.793 136.849,311.996 135.806,312.108C133.624,312.237 131.568,312.257 129.638,312.17C127.708,312.082 126.706,312 126.63,311.924L128.395,305.118C131.972,305.649 134.974,305.445 137.401,304.508C139.868,303.554 140.627,302.595 139.677,301.631C138.904,300.845 137.708,300.567 136.089,300.795C135.686,300.801 134.648,300.947 132.973,301.232C131.312,301.548 130.002,301.768 129.041,301.892C128.063,302.014 126.891,302.053 125.523,302.008C123.367,301.933 121.301,301.537 119.327,300.818C117.378,300.125 115.875,299.242 114.818,298.169C113.293,296.563 112.69,294.9 113.01,293.18C113.331,291.504 114.019,290.066 115.074,288.864C115.822,288.038 116.527,287.496 117.19,287.24L117.19,287.24Z" style="fill:white;fill-rule:nonzero;"/>
                <path id="path2995" d="M197.5,246.98L196.811,246.184L198.026,245.59L198.844,246.421C199.156,246.3 199.492,246.251 199.853,246.273C200.214,246.294 200.651,246.346 201.165,246.43L200.61,247.542C200.36,247.497 200.14,247.477 199.949,247.48C199.758,247.483 199.565,247.522 199.371,247.597C198.991,247.744 198.858,247.915 198.97,248.11C199.095,248.197 199.267,248.236 199.485,248.229C199.703,248.222 199.978,248.183 200.31,248.112C200.647,248.047 200.837,248.011 200.883,248.007C201.292,247.964 201.734,247.98 202.207,248.053C202.685,248.132 203.096,248.34 203.438,248.677C203.984,249.232 203.95,249.818 203.336,250.433C203.273,250.484 203.208,250.532 203.14,250.577C203.075,250.629 203.026,250.668 202.991,250.694L203.809,251.525L202.591,252.151L201.689,251.235C201.689,251.235 201.593,251.256 201.4,251.299C201.195,251.352 201,251.388 200.814,251.408C200.426,251.431 200.06,251.434 199.716,251.419C199.373,251.403 199.194,251.388 199.181,251.375L199.495,250.163C200.132,250.258 200.666,250.221 201.098,250.054C201.538,249.885 201.673,249.714 201.504,249.542C201.366,249.402 201.153,249.353 200.865,249.393C200.793,249.394 200.608,249.42 200.31,249.471C200.014,249.527 199.781,249.567 199.61,249.589C199.436,249.611 199.227,249.617 198.984,249.609C198.6,249.596 198.232,249.525 197.881,249.397C197.533,249.274 197.266,249.117 197.078,248.926C196.806,248.64 196.699,248.344 196.756,248.038C196.813,247.739 196.935,247.483 197.123,247.269C197.256,247.122 197.382,247.026 197.5,246.98L197.5,246.98ZM206.603,246.438C208.782,248.65 207.685,251.55 204.153,252.915C200.622,254.279 195.993,253.592 193.814,251.38C191.636,249.167 192.733,246.267 196.264,244.903C199.796,243.538 204.425,244.225 206.603,246.438Z" style="fill:white;"/>
                <path id="path3769" d="M229.98,279.97L229.291,279.174L230.506,278.58L231.324,279.411C231.636,279.29 231.972,279.241 232.333,279.263C232.694,279.284 233.131,279.336 233.645,279.42L233.09,280.532C232.84,280.487 232.62,280.466 232.429,280.47C232.238,280.473 232.045,280.512 231.851,280.587C231.471,280.734 231.338,280.905 231.45,281.1C231.575,281.187 231.747,281.226 231.965,281.219C232.183,281.212 232.458,281.173 232.79,281.102C233.127,281.037 233.317,281.001 233.363,280.997C233.772,280.954 234.214,280.97 234.687,281.043C235.165,281.122 235.576,281.33 235.918,281.667C236.464,282.222 236.43,282.808 235.816,283.423C235.753,283.474 235.688,283.522 235.62,283.567C235.555,283.619 235.506,283.658 235.471,283.684L236.289,284.515L235.071,285.141L234.169,284.225C234.169,284.225 234.073,284.246 233.88,284.289C233.675,284.342 233.48,284.378 233.295,284.398C232.906,284.421 232.54,284.424 232.196,284.409C231.853,284.393 231.674,284.378 231.661,284.365L231.975,283.153C232.612,283.248 233.146,283.211 233.578,283.044C234.018,282.875 234.153,282.704 233.984,282.532C233.846,282.392 233.633,282.343 233.345,282.383C233.273,282.384 233.088,282.41 232.79,282.461C232.494,282.517 232.261,282.557 232.09,282.579C231.916,282.601 231.707,282.607 231.464,282.599C231.08,282.586 230.712,282.516 230.361,282.388C230.013,282.264 229.746,282.107 229.558,281.916C229.286,281.63 229.179,281.334 229.236,281.028C229.293,280.729 229.415,280.473 229.603,280.259C229.736,280.112 229.862,280.016 229.98,279.97L229.98,279.97ZM239.083,279.428C241.262,281.64 240.165,284.54 236.633,285.905C233.102,287.269 228.473,286.582 226.294,284.37C224.116,282.157 225.213,279.257 228.744,277.893C232.276,276.528 236.905,277.215 239.083,279.428Z" style="fill:white;"/>
                <path id="path3771" d="M61.769,344.97L61.08,344.174L62.295,343.58L63.113,344.411C63.425,344.29 63.761,344.241 64.122,344.263C64.483,344.284 64.92,344.336 65.434,344.42L64.879,345.532C64.629,345.487 64.409,345.466 64.218,345.47C64.027,345.473 63.834,345.512 63.64,345.587C63.26,345.734 63.127,345.905 63.239,346.1C63.364,346.187 63.536,346.226 63.754,346.219C63.972,346.212 64.247,346.173 64.579,346.102C64.916,346.037 65.106,346.001 65.152,345.997C65.561,345.954 66.003,345.97 66.476,346.043C66.954,346.122 67.365,346.33 67.707,346.667C68.253,347.222 68.219,347.808 67.605,348.423C67.542,348.474 67.477,348.522 67.409,348.567C67.344,348.619 67.295,348.658 67.26,348.684L68.078,349.515L66.86,350.141L65.958,349.225C65.958,349.225 65.862,349.246 65.669,349.289C65.464,349.342 65.269,349.378 65.084,349.398C64.695,349.421 64.329,349.424 63.985,349.409C63.642,349.393 63.463,349.378 63.45,349.365L63.764,348.153C64.401,348.248 64.935,348.211 65.367,348.044C65.807,347.875 65.942,347.704 65.773,347.532C65.635,347.392 65.422,347.343 65.134,347.383C65.062,347.384 64.877,347.41 64.579,347.461C64.283,347.517 64.05,347.557 63.879,347.579C63.705,347.601 63.496,347.607 63.253,347.599C62.869,347.586 62.501,347.515 62.149,347.387C61.802,347.264 61.535,347.107 61.347,346.916C61.075,346.63 60.968,346.334 61.025,346.028C61.082,345.729 61.204,345.473 61.392,345.259C61.525,345.112 61.651,345.015 61.769,344.97L61.769,344.97ZM70.872,344.428C73.051,346.64 71.954,349.54 68.422,350.905C64.891,352.269 60.262,351.582 58.083,349.37C55.905,347.157 57.002,344.257 60.533,342.893C64.065,341.528 68.694,342.215 70.872,344.428Z" style="fill:white;"/>
                <path id="path3773" d="M29.844,312.54L29.155,311.744L30.37,311.15L31.188,311.981C31.5,311.86 31.836,311.811 32.197,311.833C32.558,311.854 32.995,311.906 33.509,311.99L32.954,313.102C32.704,313.057 32.484,313.037 32.293,313.04C32.102,313.043 31.909,313.082 31.715,313.157C31.335,313.304 31.202,313.475 31.314,313.67C31.439,313.757 31.611,313.796 31.829,313.789C32.047,313.782 32.322,313.743 32.654,313.672C32.991,313.607 33.181,313.571 33.227,313.567C33.636,313.524 34.078,313.54 34.551,313.613C35.029,313.692 35.44,313.9 35.782,314.237C36.328,314.792 36.294,315.378 35.68,315.993C35.617,316.044 35.552,316.092 35.484,316.137C35.419,316.189 35.37,316.228 35.335,316.254L36.153,317.085L34.935,317.711L34.033,316.795C34.033,316.795 33.937,316.816 33.744,316.859C33.539,316.912 33.344,316.948 33.159,316.968C32.77,316.991 32.404,316.994 32.06,316.979C31.717,316.963 31.538,316.948 31.525,316.935L31.839,315.723C32.476,315.818 33.01,315.781 33.442,315.614C33.882,315.445 34.017,315.274 33.848,315.102C33.71,314.962 33.497,314.913 33.209,314.953C33.137,314.954 32.952,314.98 32.654,315.031C32.358,315.087 32.125,315.127 31.954,315.149C31.78,315.171 31.571,315.177 31.328,315.169C30.944,315.156 30.576,315.085 30.224,314.957C29.877,314.834 29.61,314.677 29.422,314.486C29.15,314.2 29.043,313.904 29.1,313.598C29.157,313.299 29.279,313.043 29.467,312.829C29.6,312.682 29.726,312.586 29.844,312.54L29.844,312.54ZM38.947,311.998C41.126,314.21 40.029,317.11 36.497,318.475C32.966,319.839 28.337,319.152 26.158,316.94C23.98,314.727 25.077,311.827 28.608,310.463C32.14,309.098 36.769,309.785 38.947,311.998Z" style="fill:white;"/>
                <g id="rect3785" transform="matrix(0.93277,-0.36046,0.7016,0.71257,0,0)">
                    <rect x="-220.43" y="314.62" width="202.91" height="64.552" style="fill:white;stroke:rgb(98,1,1);stroke-width:4.43px;"/>
                </g>
                <path id="path3787" d="M117.19,279.24L113.318,274.771L120.143,271.432L124.738,276.098C126.491,275.421 128.38,275.145 130.405,275.271C132.433,275.386 134.89,275.68 137.775,276.152L134.656,282.397C133.254,282.146 132.016,282.029 130.943,282.047C129.87,282.064 128.788,282.284 127.697,282.706C125.566,283.529 124.815,284.49 125.445,285.587C126.149,286.073 127.114,286.295 128.339,286.254C129.565,286.212 131.11,285.994 132.974,285.6C134.863,285.232 135.935,285.033 136.189,285.006C138.49,284.769 140.968,284.856 143.625,285.267C146.313,285.71 148.617,286.878 150.539,288.772C153.608,291.889 153.417,295.177 149.968,298.635C149.616,298.921 149.248,299.191 148.865,299.445C148.503,299.735 148.224,299.953 148.03,300.098L152.624,304.764L145.784,308.281L140.718,303.136C140.718,303.136 140.176,303.257 139.091,303.5C137.944,303.793 136.849,303.996 135.806,304.108C133.624,304.237 131.568,304.257 129.638,304.17C127.708,304.082 126.706,304 126.63,303.924L128.395,297.118C131.972,297.649 134.974,297.445 137.401,296.508C139.868,295.554 140.627,294.595 139.677,293.631C138.904,292.845 137.708,292.567 136.089,292.795C135.686,292.801 134.648,292.947 132.973,293.232C131.312,293.548 130.002,293.768 129.041,293.892C128.063,294.014 126.891,294.053 125.523,294.008C123.367,293.933 121.301,293.537 119.327,292.818C117.378,292.125 115.875,291.242 114.818,290.169C113.293,288.563 112.69,286.9 113.01,285.18C113.331,283.504 114.019,282.066 115.074,280.864C115.822,280.038 116.527,279.496 117.19,279.24L117.19,279.24Z" style="fill:white;fill-rule:nonzero;"/>
                <path id="path3789" d="M197.5,238.98L196.811,238.184L198.026,237.59L198.844,238.421C199.156,238.3 199.492,238.251 199.853,238.273C200.214,238.294 200.651,238.346 201.165,238.43L200.61,239.542C200.36,239.497 200.14,239.477 199.949,239.48C199.758,239.483 199.565,239.522 199.371,239.597C198.991,239.744 198.858,239.915 198.97,240.11C199.095,240.197 199.267,240.236 199.485,240.229C199.703,240.222 199.978,240.183 200.31,240.112C200.647,240.047 200.837,240.011 200.883,240.007C201.292,239.964 201.734,239.98 202.207,240.053C202.685,240.132 203.096,240.34 203.438,240.677C203.984,241.232 203.95,241.818 203.336,242.433C203.273,242.484 203.208,242.532 203.14,242.577C203.075,242.629 203.026,242.668 202.991,242.694L203.809,243.525L202.591,244.151L201.689,243.235C201.689,243.235 201.593,243.256 201.4,243.299C201.195,243.352 201,243.388 200.814,243.408C200.426,243.431 200.06,243.434 199.716,243.419C199.373,243.403 199.194,243.388 199.181,243.375L199.495,242.163C200.132,242.258 200.666,242.221 201.098,242.054C201.538,241.885 201.673,241.714 201.504,241.542C201.366,241.402 201.153,241.353 200.865,241.393C200.793,241.394 200.608,241.42 200.31,241.471C200.014,241.527 199.781,241.567 199.61,241.589C199.436,241.611 199.227,241.617 198.984,241.609C198.6,241.596 198.232,241.525 197.881,241.397C197.533,241.274 197.266,241.117 197.078,240.926C196.806,240.64 196.699,240.344 196.756,240.038C196.813,239.739 196.935,239.483 197.123,239.269C197.256,239.122 197.382,239.026 197.5,238.98L197.5,238.98ZM206.603,238.438C208.782,240.65 207.685,243.55 204.153,244.915C200.622,246.279 195.993,245.592 193.814,243.38C191.636,241.167 192.733,238.267 196.264,236.903C199.796,235.538 204.425,236.225 206.603,238.438Z" style="fill:white;"/>
                <path id="path3791" d="M229.98,271.97L229.291,271.174L230.506,270.58L231.324,271.411C231.636,271.29 231.972,271.241 232.333,271.263C232.694,271.284 233.131,271.336 233.645,271.42L233.09,272.532C232.84,272.487 232.62,272.466 232.429,272.47C232.238,272.473 232.045,272.512 231.851,272.587C231.471,272.734 231.338,272.905 231.45,273.1C231.575,273.187 231.747,273.226 231.965,273.219C232.183,273.212 232.458,273.173 232.79,273.102C233.127,273.037 233.317,273.001 233.363,272.997C233.772,272.954 234.214,272.97 234.687,273.043C235.165,273.122 235.576,273.33 235.918,273.667C236.464,274.222 236.43,274.808 235.816,275.423C235.753,275.474 235.688,275.522 235.62,275.567C235.555,275.619 235.506,275.658 235.471,275.684L236.289,276.515L235.071,277.141L234.169,276.225C234.169,276.225 234.073,276.246 233.88,276.289C233.675,276.342 233.48,276.378 233.295,276.398C232.906,276.421 232.54,276.424 232.196,276.409C231.853,276.393 231.674,276.378 231.661,276.365L231.975,275.153C232.612,275.248 233.146,275.211 233.578,275.044C234.018,274.875 234.153,274.704 233.984,274.532C233.846,274.392 233.633,274.343 233.345,274.383C233.273,274.384 233.088,274.41 232.79,274.461C232.494,274.517 232.261,274.557 232.09,274.579C231.916,274.601 231.707,274.607 231.464,274.599C231.08,274.586 230.712,274.516 230.361,274.388C230.013,274.264 229.746,274.107 229.558,273.916C229.286,273.63 229.179,273.334 229.236,273.028C229.293,272.729 229.415,272.473 229.603,272.259C229.736,272.112 229.862,272.016 229.98,271.97L229.98,271.97ZM239.083,271.428C241.262,273.64 240.165,276.54 236.633,277.905C233.102,279.269 228.473,278.582 226.294,276.37C224.116,274.157 225.213,271.257 228.744,269.893C232.276,268.528 236.905,269.215 239.083,271.428Z" style="fill:white;"/>
                <path id="path3793" d="M61.769,336.97L61.08,336.174L62.295,335.58L63.113,336.411C63.425,336.29 63.761,336.241 64.122,336.263C64.483,336.284 64.92,336.336 65.434,336.42L64.879,337.532C64.629,337.487 64.409,337.466 64.218,337.47C64.027,337.473 63.834,337.512 63.64,337.587C63.26,337.734 63.127,337.905 63.239,338.1C63.364,338.187 63.536,338.226 63.754,338.219C63.972,338.212 64.247,338.173 64.579,338.102C64.916,338.037 65.106,338.001 65.152,337.997C65.561,337.954 66.003,337.97 66.476,338.043C66.954,338.122 67.365,338.33 67.707,338.667C68.253,339.222 68.219,339.808 67.605,340.423C67.542,340.474 67.477,340.522 67.409,340.567C67.344,340.619 67.295,340.658 67.26,340.684L68.078,341.515L66.86,342.141L65.958,341.225C65.958,341.225 65.862,341.246 65.669,341.289C65.464,341.342 65.269,341.378 65.084,341.398C64.695,341.421 64.329,341.424 63.985,341.409C63.642,341.393 63.463,341.378 63.45,341.365L63.764,340.153C64.401,340.248 64.935,340.211 65.367,340.044C65.807,339.875 65.942,339.704 65.773,339.532C65.635,339.392 65.422,339.343 65.134,339.383C65.062,339.384 64.877,339.41 64.579,339.461C64.283,339.517 64.05,339.557 63.879,339.579C63.705,339.601 63.496,339.607 63.253,339.599C62.869,339.586 62.501,339.515 62.149,339.387C61.802,339.264 61.535,339.107 61.347,338.916C61.075,338.63 60.968,338.334 61.025,338.028C61.082,337.729 61.204,337.473 61.392,337.259C61.525,337.112 61.651,337.015 61.769,336.97L61.769,336.97ZM70.872,336.428C73.051,338.64 71.954,341.54 68.422,342.905C64.891,344.269 60.262,343.582 58.083,341.37C55.905,339.157 57.002,336.257 60.533,334.893C64.065,333.528 68.694,334.215 70.872,336.428Z" style="fill:white;"/>
                <path id="path3795" d="M29.844,304.54L29.155,303.744L30.37,303.15L31.188,303.981C31.5,303.86 31.836,303.811 32.197,303.833C32.558,303.854 32.995,303.906 33.509,303.99L32.954,305.102C32.704,305.057 32.484,305.037 32.293,305.04C32.102,305.043 31.909,305.082 31.715,305.157C31.335,305.304 31.202,305.475 31.314,305.67C31.439,305.757 31.611,305.796 31.829,305.789C32.047,305.782 32.322,305.743 32.654,305.672C32.991,305.607 33.181,305.571 33.227,305.567C33.636,305.524 34.078,305.54 34.551,305.613C35.029,305.692 35.44,305.9 35.782,306.237C36.328,306.792 36.294,307.378 35.68,307.993C35.617,308.044 35.552,308.092 35.484,308.137C35.419,308.189 35.37,308.228 35.335,308.254L36.153,309.085L34.935,309.711L34.033,308.795C34.033,308.795 33.937,308.816 33.744,308.859C33.539,308.912 33.344,308.948 33.159,308.968C32.77,308.991 32.404,308.994 32.06,308.979C31.717,308.963 31.538,308.948 31.525,308.935L31.839,307.723C32.476,307.818 33.01,307.781 33.442,307.614C33.882,307.445 34.017,307.274 33.848,307.102C33.71,306.962 33.497,306.913 33.209,306.953C33.137,306.954 32.952,306.98 32.654,307.031C32.358,307.087 32.125,307.127 31.954,307.149C31.78,307.171 31.571,307.177 31.328,307.169C30.944,307.156 30.576,307.085 30.224,306.957C29.877,306.834 29.61,306.677 29.422,306.486C29.15,306.2 29.043,305.904 29.1,305.598C29.157,305.299 29.279,305.043 29.467,304.829C29.6,304.682 29.726,304.586 29.844,304.54L29.844,304.54ZM38.947,303.998C41.126,306.21 40.029,309.11 36.497,310.475C32.966,311.839 28.337,311.152 26.158,308.94C23.98,306.727 25.077,303.827 28.608,302.463C32.14,301.098 36.769,301.785 38.947,303.998Z" style="fill:white;"/>
                <g id="rect3799" transform="matrix(0.93277,-0.36046,0.7016,0.71257,0,0)">
                    <rect x="-214.31" y="306.48" width="202.91" height="64.552" style="fill:white;stroke:rgb(98,1,1);stroke-width:4.43px;"/>
                </g>
                <path id="path3801" d="M117.19,271.24L113.318,266.771L120.143,263.432L124.738,268.098C126.491,267.421 128.38,267.145 130.405,267.271C132.433,267.386 134.89,267.68 137.775,268.152L134.656,274.397C133.254,274.146 132.016,274.029 130.943,274.047C129.87,274.064 128.788,274.284 127.697,274.706C125.566,275.529 124.815,276.49 125.445,277.587C126.149,278.073 127.114,278.295 128.339,278.254C129.565,278.212 131.11,277.994 132.974,277.6C134.863,277.232 135.935,277.033 136.189,277.006C138.49,276.769 140.968,276.856 143.625,277.267C146.313,277.71 148.617,278.878 150.539,280.772C153.608,283.889 153.417,287.177 149.968,290.635C149.616,290.921 149.248,291.191 148.865,291.445C148.503,291.735 148.224,291.953 148.03,292.098L152.624,296.764L145.784,300.281L140.718,295.136C140.718,295.136 140.176,295.257 139.091,295.5C137.944,295.793 136.849,295.996 135.806,296.108C133.624,296.237 131.568,296.257 129.638,296.17C127.708,296.082 126.706,296 126.63,295.924L128.395,289.118C131.972,289.649 134.974,289.445 137.401,288.508C139.868,287.554 140.627,286.595 139.677,285.631C138.904,284.845 137.708,284.567 136.089,284.795C135.686,284.801 134.648,284.947 132.973,285.232C131.312,285.548 130.002,285.768 129.041,285.892C128.063,286.014 126.891,286.053 125.523,286.008C123.367,285.933 121.301,285.537 119.327,284.818C117.378,284.125 115.875,283.242 114.818,282.169C113.293,280.563 112.69,278.9 113.01,277.18C113.331,275.504 114.019,274.066 115.074,272.864C115.822,272.038 116.527,271.496 117.19,271.24L117.19,271.24Z" style="fill:rgb(43,255,0);fill-rule:nonzero;"/>
                <path id="path3803" d="M197.5,230.98L196.811,230.184L198.026,229.59L198.844,230.421C199.156,230.3 199.492,230.251 199.853,230.273C200.214,230.294 200.651,230.346 201.165,230.43L200.61,231.542C200.36,231.497 200.14,231.477 199.949,231.48C199.758,231.483 199.565,231.522 199.371,231.597C198.991,231.744 198.858,231.915 198.97,232.11C199.095,232.197 199.267,232.236 199.485,232.229C199.703,232.222 199.978,232.183 200.31,232.112C200.647,232.047 200.837,232.011 200.883,232.007C201.292,231.964 201.734,231.98 202.207,232.053C202.685,232.132 203.096,232.34 203.438,232.677C203.984,233.232 203.95,233.818 203.336,234.433C203.273,234.484 203.208,234.532 203.14,234.577C203.075,234.629 203.026,234.668 202.991,234.694L203.809,235.525L202.591,236.151L201.689,235.235C201.689,235.235 201.593,235.256 201.4,235.299C201.195,235.352 201,235.388 200.814,235.408C200.426,235.431 200.06,235.434 199.716,235.419C199.373,235.403 199.194,235.388 199.181,235.375L199.495,234.163C200.132,234.258 200.666,234.221 201.098,234.054C201.538,233.885 201.673,233.714 201.504,233.542C201.366,233.402 201.153,233.353 200.865,233.393C200.793,233.394 200.608,233.42 200.31,233.471C200.014,233.527 199.781,233.567 199.61,233.589C199.436,233.611 199.227,233.617 198.984,233.609C198.6,233.596 198.232,233.525 197.881,233.397C197.533,233.274 197.266,233.117 197.078,232.926C196.806,232.64 196.699,232.344 196.756,232.038C196.813,231.739 196.935,231.483 197.123,231.269C197.256,231.122 197.382,231.026 197.5,230.98L197.5,230.98ZM206.603,230.438C208.782,232.65 207.685,235.55 204.153,236.915C200.622,238.279 195.993,237.592 193.814,235.38C191.636,233.167 192.733,230.267 196.264,228.903C199.796,227.538 204.425,228.225 206.603,230.438Z" style="fill:white;"/>
                <path id="path3805" d="M229.98,263.97L229.291,263.174L230.506,262.58L231.324,263.411C231.636,263.29 231.972,263.241 232.333,263.263C232.694,263.284 233.131,263.336 233.645,263.42L233.09,264.532C232.84,264.487 232.62,264.466 232.429,264.47C232.238,264.473 232.045,264.512 231.851,264.587C231.471,264.734 231.338,264.905 231.45,265.1C231.575,265.187 231.747,265.226 231.965,265.219C232.183,265.212 232.458,265.173 232.79,265.102C233.127,265.037 233.317,265.001 233.363,264.997C233.772,264.954 234.214,264.97 234.687,265.043C235.165,265.122 235.576,265.33 235.918,265.667C236.464,266.222 236.43,266.808 235.816,267.423C235.753,267.474 235.688,267.522 235.62,267.567C235.555,267.619 235.506,267.658 235.471,267.684L236.289,268.515L235.071,269.141L234.169,268.225C234.169,268.225 234.073,268.246 233.88,268.289C233.675,268.342 233.48,268.378 233.295,268.398C232.906,268.421 232.54,268.424 232.196,268.409C231.853,268.393 231.674,268.378 231.661,268.365L231.975,267.153C232.612,267.248 233.146,267.211 233.578,267.044C234.018,266.875 234.153,266.704 233.984,266.532C233.846,266.392 233.633,266.343 233.345,266.383C233.273,266.384 233.088,266.41 232.79,266.461C232.494,266.517 232.261,266.557 232.09,266.579C231.916,266.601 231.707,266.607 231.464,266.599C231.08,266.586 230.712,266.516 230.361,266.388C230.013,266.264 229.746,266.107 229.558,265.916C229.286,265.63 229.179,265.334 229.236,265.028C229.293,264.729 229.415,264.473 229.603,264.259C229.736,264.112 229.862,264.016 229.98,263.97L229.98,263.97ZM239.083,263.428C241.262,265.64 240.165,268.54 236.633,269.905C233.102,271.269 228.473,270.582 226.294,268.37C224.116,266.157 225.213,263.257 228.744,261.893C232.276,260.528 236.905,261.215 239.083,263.428Z" style="fill:white;"/>
                <path id="path3807" d="M61.769,328.97L61.08,328.174L62.295,327.58L63.113,328.411C63.425,328.29 63.761,328.241 64.122,328.263C64.483,328.284 64.92,328.336 65.434,328.42L64.879,329.532C64.629,329.487 64.409,329.466 64.218,329.47C64.027,329.473 63.834,329.512 63.64,329.587C63.26,329.734 63.127,329.905 63.239,330.1C63.364,330.187 63.536,330.226 63.754,330.219C63.972,330.212 64.247,330.173 64.579,330.102C64.916,330.037 65.106,330.001 65.152,329.997C65.561,329.954 66.003,329.97 66.476,330.043C66.954,330.122 67.365,330.33 67.707,330.667C68.253,331.222 68.219,331.808 67.605,332.423C67.542,332.474 67.477,332.522 67.409,332.567C67.344,332.619 67.295,332.658 67.26,332.684L68.078,333.515L66.86,334.141L65.958,333.225C65.958,333.225 65.862,333.246 65.669,333.289C65.464,333.342 65.269,333.378 65.084,333.398C64.695,333.421 64.329,333.424 63.985,333.409C63.642,333.393 63.463,333.378 63.45,333.365L63.764,332.153C64.401,332.248 64.935,332.211 65.367,332.044C65.807,331.875 65.942,331.704 65.773,331.532C65.635,331.392 65.422,331.343 65.134,331.383C65.062,331.384 64.877,331.41 64.579,331.461C64.283,331.517 64.05,331.557 63.879,331.579C63.705,331.601 63.496,331.607 63.253,331.599C62.869,331.586 62.501,331.515 62.149,331.387C61.802,331.264 61.535,331.107 61.347,330.916C61.075,330.63 60.968,330.334 61.025,330.028C61.082,329.729 61.204,329.473 61.392,329.259C61.525,329.112 61.651,329.015 61.769,328.97L61.769,328.97ZM70.872,328.428C73.051,330.64 71.954,333.54 68.422,334.905C64.891,336.269 60.262,335.582 58.083,333.37C55.905,331.157 57.002,328.257 60.533,326.893C64.065,325.528 68.694,326.215 70.872,328.428Z" style="fill:white;"/>
                <path id="path3809" d="M29.844,296.54L29.155,295.744L30.37,295.15L31.188,295.981C31.5,295.86 31.836,295.811 32.197,295.833C32.558,295.854 32.995,295.906 33.509,295.99L32.954,297.102C32.704,297.057 32.484,297.037 32.293,297.04C32.102,297.043 31.909,297.082 31.715,297.157C31.335,297.304 31.202,297.475 31.314,297.67C31.439,297.757 31.611,297.796 31.829,297.789C32.047,297.782 32.322,297.743 32.654,297.672C32.991,297.607 33.181,297.571 33.227,297.567C33.636,297.524 34.078,297.54 34.551,297.613C35.029,297.692 35.44,297.9 35.782,298.237C36.328,298.792 36.294,299.378 35.68,299.993C35.617,300.044 35.552,300.092 35.484,300.137C35.419,300.189 35.37,300.228 35.335,300.254L36.153,301.085L34.935,301.711L34.033,300.795C34.033,300.795 33.937,300.816 33.744,300.859C33.539,300.912 33.344,300.948 33.159,300.968C32.77,300.991 32.404,300.994 32.06,300.979C31.717,300.963 31.538,300.948 31.525,300.935L31.839,299.723C32.476,299.818 33.01,299.781 33.442,299.614C33.882,299.445 34.017,299.274 33.848,299.102C33.71,298.962 33.497,298.913 33.209,298.953C33.137,298.954 32.952,298.98 32.654,299.031C32.358,299.087 32.125,299.127 31.954,299.149C31.78,299.171 31.571,299.177 31.328,299.169C30.944,299.156 30.576,299.085 30.224,298.957C29.877,298.834 29.61,298.677 29.422,298.486C29.15,298.2 29.043,297.904 29.1,297.598C29.157,297.299 29.279,297.043 29.467,296.829C29.6,296.682 29.726,296.586 29.844,296.54L29.844,296.54ZM38.947,295.998C41.126,298.21 40.029,301.11 36.497,302.475C32.966,303.839 28.337,303.152 26.158,300.94C23.98,298.727 25.077,295.827 28.608,294.463C32.14,293.098 36.769,293.785 38.947,295.998Z" style="fill:white;"/>
                <g id="rect3813" transform="matrix(0.93277,-0.36046,0.7016,0.71257,0,0)">
                    <rect x="-208.19" y="298.35" width="202.91" height="64.552" style="fill:white;stroke:rgb(98,1,1);stroke-width:4.43px;"/>
                </g>
                <path id="path3817" d="M197.5,222.98L196.811,222.184L198.026,221.59L198.844,222.421C199.156,222.3 199.492,222.251 199.853,222.273C200.214,222.294 200.651,222.346 201.165,222.43L200.61,223.542C200.36,223.497 200.14,223.477 199.949,223.48C199.758,223.483 199.565,223.522 199.371,223.597C198.991,223.744 198.858,223.915 198.97,224.11C199.095,224.197 199.267,224.236 199.485,224.229C199.703,224.222 199.978,224.183 200.31,224.112C200.647,224.047 200.837,224.011 200.883,224.007C201.292,223.964 201.734,223.98 202.207,224.053C202.685,224.132 203.096,224.34 203.438,224.677C203.984,225.232 203.95,225.818 203.336,226.433C203.273,226.484 203.208,226.532 203.14,226.577C203.075,226.629 203.026,226.668 202.991,226.694L203.809,227.525L202.591,228.151L201.689,227.235C201.689,227.235 201.593,227.256 201.4,227.299C201.195,227.352 201,227.388 200.814,227.408C200.426,227.431 200.06,227.434 199.716,227.419C199.373,227.403 199.194,227.388 199.181,227.375L199.495,226.163C200.132,226.258 200.666,226.221 201.098,226.054C201.538,225.885 201.673,225.714 201.504,225.542C201.366,225.402 201.153,225.353 200.865,225.393C200.793,225.394 200.608,225.42 200.31,225.471C200.014,225.527 199.781,225.567 199.61,225.589C199.436,225.611 199.227,225.617 198.984,225.609C198.6,225.596 198.232,225.525 197.881,225.397C197.533,225.274 197.266,225.117 197.078,224.926C196.806,224.64 196.699,224.344 196.756,224.038C196.813,223.739 196.935,223.483 197.123,223.269C197.256,223.122 197.382,223.026 197.5,222.98L197.5,222.98ZM206.603,222.438C208.782,224.65 207.685,227.55 204.153,228.915C200.622,230.279 195.993,229.592 193.814,227.38C191.636,225.167 192.733,222.267 196.264,220.903C199.796,219.538 204.425,220.225 206.603,222.438Z"/>
                <path id="path3819" d="M229.98,255.97L229.291,255.174L230.506,254.58L231.324,255.411C231.636,255.29 231.972,255.241 232.333,255.263C232.694,255.284 233.131,255.336 233.645,255.42L233.09,256.532C232.84,256.487 232.62,256.466 232.429,256.47C232.238,256.473 232.045,256.512 231.851,256.587C231.471,256.734 231.338,256.905 231.45,257.1C231.575,257.187 231.747,257.226 231.965,257.219C232.183,257.212 232.458,257.173 232.79,257.102C233.127,257.037 233.317,257.001 233.363,256.997C233.772,256.954 234.214,256.97 234.687,257.043C235.165,257.122 235.576,257.33 235.918,257.667C236.464,258.222 236.43,258.808 235.816,259.423C235.753,259.474 235.688,259.522 235.62,259.567C235.555,259.619 235.506,259.658 235.471,259.684L236.289,260.515L235.071,261.141L234.169,260.225C234.169,260.225 234.073,260.246 233.88,260.289C233.675,260.342 233.48,260.378 233.295,260.398C232.906,260.421 232.54,260.424 232.196,260.409C231.853,260.393 231.674,260.378 231.661,260.365L231.975,259.153C232.612,259.248 233.146,259.211 233.578,259.044C234.018,258.875 234.153,258.704 233.984,258.532C233.846,258.392 233.633,258.343 233.345,258.383C233.273,258.384 233.088,258.41 232.79,258.461C232.494,258.517 232.261,258.557 232.09,258.579C231.916,258.601 231.707,258.607 231.464,258.599C231.08,258.586 230.712,258.516 230.361,258.388C230.013,258.264 229.746,258.107 229.558,257.916C229.286,257.63 229.179,257.334 229.236,257.028C229.293,256.729 229.415,256.473 229.603,256.259C229.736,256.112 229.862,256.016 229.98,255.97L229.98,255.97ZM239.083,255.428C241.262,257.64 240.165,260.54 236.633,261.905C233.102,263.269 228.473,262.582 226.294,260.37C224.116,258.157 225.213,255.257 228.744,253.893C232.276,252.528 236.905,253.215 239.083,255.428Z"/>
                <path id="path3821" d="M61.769,320.97L61.08,320.174L62.295,319.58L63.113,320.411C63.425,320.29 63.761,320.241 64.122,320.263C64.483,320.284 64.92,320.336 65.434,320.42L64.879,321.532C64.629,321.487 64.409,321.466 64.218,321.47C64.027,321.473 63.834,321.512 63.64,321.587C63.26,321.734 63.127,321.905 63.239,322.1C63.364,322.187 63.536,322.226 63.754,322.219C63.972,322.212 64.247,322.173 64.579,322.102C64.916,322.037 65.106,322.001 65.152,321.997C65.561,321.954 66.003,321.97 66.476,322.043C66.954,322.122 67.365,322.33 67.707,322.667C68.253,323.222 68.219,323.808 67.605,324.423C67.542,324.474 67.477,324.522 67.409,324.567C67.344,324.619 67.295,324.658 67.26,324.684L68.078,325.515L66.86,326.141L65.958,325.225C65.958,325.225 65.862,325.246 65.669,325.289C65.464,325.342 65.269,325.378 65.084,325.398C64.695,325.421 64.329,325.424 63.985,325.409C63.642,325.393 63.463,325.378 63.45,325.365L63.764,324.153C64.401,324.248 64.935,324.211 65.367,324.044C65.807,323.875 65.942,323.704 65.773,323.532C65.635,323.392 65.422,323.343 65.134,323.383C65.062,323.384 64.877,323.41 64.579,323.461C64.283,323.517 64.05,323.557 63.879,323.579C63.705,323.601 63.496,323.607 63.253,323.599C62.869,323.586 62.501,323.515 62.149,323.387C61.802,323.264 61.535,323.107 61.347,322.916C61.075,322.63 60.968,322.334 61.025,322.028C61.082,321.729 61.204,321.473 61.392,321.259C61.525,321.112 61.651,321.015 61.769,320.97L61.769,320.97ZM70.872,320.428C73.051,322.64 71.954,325.54 68.422,326.905C64.891,328.269 60.262,327.582 58.083,325.37C55.905,323.157 57.002,320.257 60.533,318.893C64.065,317.528 68.694,318.215 70.872,320.428Z"/>
                <path id="path3823" d="M29.844,288.54L29.155,287.744L30.37,287.15L31.188,287.981C31.5,287.86 31.836,287.811 32.197,287.833C32.558,287.854 32.995,287.906 33.509,287.99L32.954,289.102C32.704,289.057 32.484,289.037 32.293,289.04C32.102,289.043 31.909,289.082 31.715,289.157C31.335,289.304 31.202,289.475 31.314,289.67C31.439,289.757 31.611,289.796 31.829,289.789C32.047,289.782 32.322,289.743 32.654,289.672C32.991,289.607 33.181,289.571 33.227,289.567C33.636,289.524 34.078,289.54 34.551,289.613C35.029,289.692 35.44,289.9 35.782,290.237C36.328,290.792 36.294,291.378 35.68,291.993C35.617,292.044 35.552,292.092 35.484,292.137C35.419,292.189 35.37,292.228 35.335,292.254L36.153,293.085L34.935,293.711L34.033,292.795C34.033,292.795 33.937,292.816 33.744,292.859C33.539,292.912 33.344,292.948 33.159,292.968C32.77,292.991 32.404,292.994 32.06,292.979C31.717,292.963 31.538,292.948 31.525,292.935L31.839,291.723C32.476,291.818 33.01,291.781 33.442,291.614C33.882,291.445 34.017,291.274 33.848,291.102C33.71,290.962 33.497,290.913 33.209,290.953C33.137,290.954 32.952,290.98 32.654,291.031C32.358,291.087 32.125,291.127 31.954,291.149C31.78,291.171 31.571,291.177 31.328,291.169C30.944,291.156 30.576,291.085 30.224,290.957C29.877,290.834 29.61,290.677 29.422,290.486C29.15,290.2 29.043,289.904 29.1,289.598C29.157,289.299 29.279,289.043 29.467,288.829C29.6,288.682 29.726,288.586 29.844,288.54L29.844,288.54ZM38.947,287.998C41.126,290.21 40.029,293.11 36.497,294.475C32.966,295.839 28.337,295.152 26.158,292.94C23.98,290.727 25.077,287.827 28.608,286.463C32.14,285.098 36.769,285.785 38.947,287.998Z" style="fill:rgb(1,4,0);"/>
                <path id="path3849" d="M162.66,261.75C172.858,272.108 167.723,285.684 151.19,292.072C134.657,298.461 112.987,295.244 102.789,284.886C92.591,274.528 97.726,260.953 114.259,254.564C130.792,248.175 152.462,251.392 162.66,261.75Z" style="fill-rule:nonzero;stroke:rgb(98,1,1);stroke-width:1.06px;"/>
                <path id="path3815" d="M117.19,263.24L113.318,258.771L120.143,255.432L124.738,260.098C126.491,259.421 128.38,259.145 130.405,259.271C132.433,259.386 134.89,259.68 137.775,260.152L134.656,266.397C133.254,266.146 132.016,266.029 130.943,266.047C129.87,266.064 128.788,266.284 127.697,266.706C125.566,267.529 124.815,268.49 125.445,269.587C126.149,270.073 127.114,270.295 128.339,270.254C129.565,270.212 131.11,269.994 132.974,269.6C134.863,269.232 135.935,269.033 136.189,269.006C138.49,268.769 140.968,268.856 143.625,269.267C146.313,269.71 148.617,270.878 150.539,272.772C153.608,275.889 153.417,279.177 149.968,282.635C149.616,282.921 149.248,283.191 148.865,283.445C148.503,283.735 148.224,283.953 148.03,284.098L152.624,288.764L145.784,292.281L140.718,287.136C140.718,287.136 140.176,287.257 139.091,287.5C137.944,287.793 136.849,287.996 135.806,288.108C133.624,288.237 131.568,288.257 129.638,288.17C127.708,288.082 126.706,288 126.63,287.924L128.395,281.118C131.972,281.649 134.974,281.445 137.401,280.508C139.868,279.554 140.627,278.595 139.677,277.631C138.904,276.845 137.708,276.567 136.089,276.795C135.686,276.801 134.648,276.947 132.973,277.232C131.312,277.548 130.002,277.768 129.041,277.892C128.063,278.014 126.891,278.053 125.523,278.008C123.367,277.933 121.301,277.537 119.327,276.818C117.378,276.125 115.875,275.242 114.818,274.169C113.293,272.563 112.69,270.9 113.01,269.18C113.331,267.504 114.019,266.066 115.074,264.864C115.822,264.038 116.527,263.496 117.19,263.24L117.19,263.24Z" style="fill:white;fill-rule:nonzero;"/>
            </g>
        </g>
    </g>
</svg>
