<?xml version="1.0" encoding="UTF-8" standalone="no"?>
<!DOCTYPE svg PUBLIC "-//W3C//DTD SVG 1.1//EN" "http://www.w3.org/Graphics/SVG/1.1/DTD/svg11.dtd">
<svg width="100%" height="100%" viewBox="0 0 425 309" version="1.1" xmlns="http://www.w3.org/2000/svg" xmlns:xlink="http://www.w3.org/1999/xlink" xml:space="preserve" xmlns:serif="http://www.serif.com/" style="fill-rule:evenodd;clip-rule:evenodd;stroke-linejoin:round;stroke-miterlimit:2;">
    <g transform="matrix(1,0,0,1,-19,-77)">
        <g id="Design">
            <g id="UPS-Truck">
                <path id="Shape" d="M385.833,154.333L327.958,154.333L327.958,77.167L57.875,77.167C36.558,77.167 19.292,94.433 19.292,115.75L19.292,327.958L57.875,327.958C57.875,359.886 83.822,385.833 115.75,385.833C147.678,385.833 173.625,359.886 173.625,327.958L289.375,327.958C289.375,359.886 315.322,385.833 347.25,385.833C379.178,385.833 405.125,359.886 405.125,327.958L443.708,327.958L443.708,231.5L385.833,154.333ZM115.75,356.896C99.738,356.896 86.813,343.97 86.813,327.958C86.813,311.946 99.738,299.021 115.75,299.021C131.762,299.021 144.688,311.946 144.688,327.958C144.688,343.97 131.762,356.896 115.75,356.896ZM376.188,183.271L414.096,231.5L327.958,231.5L327.958,183.271L376.188,183.271ZM347.25,356.896C331.238,356.896 318.313,343.97 318.313,327.958C318.313,311.946 331.238,299.021 347.25,299.021C363.262,299.021 376.188,311.946 376.188,327.958C376.188,343.97 363.262,356.896 347.25,356.896Z" style="fill-rule:nonzero;"/>
            </g>
        </g>
    </g>
</svg>
